/* XPM */
static char *b8c4efa0c2854461f7d4d6379ec7ad98KmC0V0WgVzmlQDLb[] = {
/* columns rows colors chars-per-pixel */
"60 60 245 2 ",
"   c #040404",
".  c #070806",
"X  c #0A0907",
"o  c #0C0C0A",
"O  c #130A0A",
"+  c #16140F",
"@  c #3C0E07",
"#  c #3A0E09",
"$  c #2B1509",
"%  c #391406",
"&  c #3D1109",
"*  c #382905",
"=  c #3A3008",
"-  c #282417",
";  c #392F29",
":  c #500B07",
">  c #451D03",
",  c #44130A",
"<  c #4A160B",
"1  c #4D190D",
"2  c #5E1509",
"3  c #541B0D",
"4  c #5A1D0F",
"5  c #551C10",
"6  c #5C1E10",
"7  c #700803",
"8  c #611E11",
"9  c #47280B",
"0  c #4A2E0A",
"q  c #59270B",
"w  c #573407",
"e  c #5A2912",
"r  c #46391A",
"t  c #5A3613",
"y  c #692807",
"u  c #683805",
"i  c #763805",
"p  c #632212",
"a  c #6B2515",
"s  c #692A17",
"d  c #6E2A16",
"f  c #712617",
"g  c #722B16",
"h  c #752A1A",
"j  c #7C2C1C",
"k  c #673917",
"l  c #743614",
"z  c #7C341A",
"x  c #793918",
"c  c #4C3A2E",
"v  c #5F4210",
"b  c #6A451B",
"n  c #794E15",
"m  c #77451A",
"M  c #534225",
"N  c #774923",
"B  c #7C5523",
"V  c #6C5135",
"C  c #79632A",
"Z  c #61544B",
"A  c #6C6F6B",
"S  c #860607",
"D  c #910F0B",
"F  c #A90609",
"G  c #A81E11",
"H  c #873504",
"J  c #953B0B",
"K  c #822F1D",
"L  c #8D3513",
"P  c #823C16",
"I  c #85321E",
"U  c #88321E",
"Y  c #843C1A",
"T  c #8B3D1C",
"R  c #BC2C10",
"E  c #822D21",
"W  c #863220",
"Q  c #8B3421",
"!  c #8E3A21",
"~  c #923623",
"^  c #933A23",
"/  c #9B3B26",
"(  c #A83B28",
")  c #CD121A",
"_  c #C32513",
"`  c #8E490D",
"'  c #834517",
"]  c #854219",
"[  c #8C441B",
"{  c #8D4B1B",
"}  c #9B4712",
"|  c #91451D",
" . c #934A1D",
".. c #9A4D1E",
"X. c #95531C",
"o. c #9C551E",
"O. c #9E591F",
"+. c #B0500B",
"@. c #A6581C",
"#. c #B86718",
"$. c #864724",
"%. c #984823",
"&. c #885924",
"*. c #995423",
"=. c #935B34",
"-. c #A54924",
";. c #A5412B",
":. c #AB442D",
">. c #A35523",
",. c #A95726",
"<. c #A45C21",
"1. c #AB5C24",
"2. c #B15E25",
"3. c #B65D2A",
"4. c #B04730",
"5. c #B24932",
"6. c #B44932",
"7. c #BB4C36",
"8. c #BE5136",
"9. c #876428",
"0. c #926C2B",
"q. c #97752C",
"w. c #906635",
"e. c #887433",
"r. c #987932",
"t. c #AC6124",
"y. c #A86629",
"u. c #B36326",
"i. c #B56329",
"p. c #B96729",
"a. c #BB652A",
"s. c #BD692C",
"d. c #A9762D",
"f. c #B5742A",
"g. c #B8782C",
"h. c #A86838",
"j. c #B76634",
"k. c #A77733",
"l. c #B77B35",
"z. c #C55C10",
"x. c #D36C11",
"c. c #E97310",
"v. c #CA5829",
"b. c #C15138",
"n. c #C16629",
"m. c #C46B2B",
"M. c #CB6E2C",
"N. c #CD712E",
"B. c #D3732E",
"V. c #DB762E",
"C. c #D6782E",
"Z. c #DE792E",
"A. c #C66936",
"S. c #CB7534",
"D. c #D37531",
"F. c #D87832",
"G. c #E2772F",
"H. c #E27B2F",
"J. c #E47C31",
"K. c #E97C31",
"L. c #8E764E",
"P. c #B07449",
"I. c #C17D68",
"U. c #9B8332",
"Y. c #AB8B33",
"T. c #A88A35",
"R. c #B98838",
"E. c #B8953B",
"W. c #D98F36",
"Q. c #C3983E",
"!. c #EB8233",
"~. c #F58435",
"^. c #C4A53E",
"/. c #C5AA3F",
"(. c #B18E4D",
"). c #8D8776",
"_. c #B18E74",
"`. c #CD8942",
"'. c #D18C43",
"]. c #D19443",
"[. c #D0964A",
"{. c #C7A543",
"}. c #C6AA41",
"|. c #CAAD42",
" X c #D4A745",
".X c #CEB143",
"XX c #CAB04A",
"oX c #D2B545",
"OX c #D5B946",
"+X c #D9BB47",
"@X c #DAB448",
"#X c #D6B948",
"$X c #DCBD49",
"%X c #D0B458",
"&X c #E5B04B",
"*X c #CB9569",
"=X c #CBB86A",
"-X c #DEC047",
";X c #DFC14A",
":X c #E3C54B",
">X c #EAC24E",
",X c #E7C84D",
"<X c #EBCB4E",
"1X c #EFD04F",
"2X c #E7C150",
"3X c #EDCE50",
"4X c #EFD051",
"5X c #F2D252",
"6X c #F7D654",
"7X c #F8D753",
"8X c #F8D754",
"9X c #F7D854",
"0X c #FAD954",
"qX c #FAD955",
"wX c #FCDB55",
"eX c #FDDC57",
"rX c #D7C077",
"tX c #467C94",
"yX c #3985AC",
"uX c #728589",
"iX c #5386A1",
"pX c #76AEB7",
"aX c #6BB2C9",
"sX c #77C5D3",
"dX c #4ECCF5",
"fX c #68D1E8",
"gX c #839A9E",
"hX c #AC9988",
"jX c #AD96AE",
"kX c #82AEAB",
"lX c #CE989D",
"zX c #C7BA8B",
"xX c #CF86A5",
"cX c #D8C78E",
"vX c #D1CBAC",
"bX c #ACAAD3",
"nX c #B9B6E4",
"mX c #C1ABD3",
"MX c #C4B8DC",
"NX c #D6D7D6",
"BX c #E2DCD0",
"VX c #C5C1EC",
"CX c #C9C8F6",
"ZX c #D0D0FB",
"AX c #E7E9EF",
/* pixels */
"6XqX6X6X6X6X6X6X6X9X6X6X6XqX8X8X7X6X6X5X6X6X6X6X6X6X5X6X6X,Xq.0.<X5X5X3X3X5X4X3X<X<X<X<X<X<X<X<X<X,X<X,X:X:X:X:X:X:X-X-X",
"7XqXqXqX6X6X6XqX8XqXqX8X8XqXqXqXqX7X6X6X6X6X6X6X6X6X6X6X6X#Xw k ,X5X5X5X5X5X4X4X3X3X<X<X<X<X<X3X<X<X<X<X:X:X:X,X,X:X:X-X",
"qXqXqXqX6X6X8XqXqXqXqX8X8XqXqXqXqX7X7X6X6X8X8X7X6X6X6X7X8X@Xw t $X6X5X5X5X5X4X5X5X5X<X<X<X<X3X3X<X<X<X<X:X:X,X,X,X:X:X:X",
"qXqXwXqXqX8XqXwXqXwXqXqXqXqXqXqXqX8X7X8X7XqX8X8X7X6X6X7X8XT.> 9 #X6X6X5X5X5X5X5X5X5X3X<X3X<X3X<X<X<X<X<X<X,X,X,X,X:X:X:X",
"wXwXwXqXqXqXqXwXwXwXwXqXqXqXwXwXwXqXqXqX8XqX8XqXqXqX6XqX<Xb % % oX7X6X5X5X5X5X5X6X5X5X<X4X3X4X3X<X3X<X3X<X,X<X,X,X:X,X:X",
"wXwXwXwXqXwXqXwXeXwXwXqXqXqXwXwXwXqXqXqX8XqXqXqXeXqX<XoX0.% % 9 oXqX8X6X6X6X5X5X6X6X5X3X5X5X5X5X3X4X<X3X<X<X<X,X<X:X:X:X",
"wXeXeXwXqXwXqXqXeXwXwXqXqXqXwXwXwXqXqXqXqXwX6X$XE.9.t t b q.T.q.:XqXqX6X8X6X5X5X6X6X5X5X5X5X5X5X4X4X<X<X<X<X<X,X<X<X,X:X",
"eXeXeXwXqXqXqXqXqXqXwXqXqX8XwXqXqXqXqXwX4XY.m 0 t C e.#X5XeX:XT.:XqX8X6X8X7X5X5X5X5X5X5X5X5X5X3X<X5X3X<X<X<X,X,X<X,X,X,X",
"eXeXeXwXqXqXqX6X8X8XqXqXqX7XqXqXqXqX7XqX<XY.T.r.;X3X(.5X6XqX,XY.:XeX7X6X8XqX6X6X5X5X3X<X3X,X:X$X@X@X|.{.Q.E.R.k.T.,X<X<X",
"eXeXeXwXwX&X`. X>X5X6X6X6X5X6X6X6X6X5X6X6X8X6X(.$X@Xq.f.f.>X$XU.|.2X@X X X{.Q.R.k.k.0.&.&.N m l k s s p p a f < b ,X<X<X",
"wXeXwXwXqX&X8.8.j.l.`.'.'.'.'.'.'.'.`.`.`.W.W.t.@.} ` J } i.*.k $.$.x g s p e 6 3 3 3 3 3 3 3 3 3 3 3 4 4 4 4 # 9.<X<X3X",
"wXeXqXwXqX>XA.b.b.6.:.;.:.4.6.7.7.7.7.6.6.v.c.+.n i i u H ;.j 4 j W j d p e 4 6 4 3 3 3 3 3 3 3 4 4 6 6 6 6 4 $ U.<X<X3X",
"qXwXqXwXqX5XA.4.5.6.5.4.:.;.;.;.;.( ;.4.5.v.c.+.u w w = u %.z 4 j Q W j d a p 6 6 4 6 3 3 4 4 4 6 6 6 6 6 4 3 $ E.<X<X3X",
"7XwXqXqXqX8X'.5.5.:.:.;.;.;.;.;.( / / ;.;.-.c.+.u 0 0 * u / W p j Q K h a p 6 4 4 4 4 6 6 6 4 6 6 8 8 6 6 4 < $ }.3X<X<X",
"6XqXqXqX8XqX&X8.b.b.7.7.7.6.4.:.;.;.;.;.;.-.c.+.i = * * w ^ Q p h Q W I j h f a a p p p p p p p p p p p 6 4 , * #X<X<X<X",
"6X8X8X8X8X8X>XA.8.8.8.7.7.7.7.7.7.7.7.7.5.4.c.+.H w * * y L I 4 a Q Q W I I j j j h g h j j j j j K K j h a < r :X4X3X<X",
"6X6X6X8X8X8X4XS.5.5.5.5.4.5.5.5.5.5.5.5.4.:.x.+.H i 0 0 i L Q p a ~ ~ ^ ^ ^ ^ ^ ^ ^ ~ ^ / / / / / / / ~ ~ Q 1 b <X5X5X<X",
"6X6X6X8X6X8X6X$XR.l.d.d.y.y.y.y.y.%.~ ~ Q Q z.z.H H w i H L U p h Q Q K K j j j j j j I Q ^ / / / / / / / / < C <X5X5X3X",
"6X6X5X5X6X8X5X5X4X<X,X:X:X-X-X$X$XR.Q I j j } x.J J ' } @.2.@... ...| T P g d a p 8 4 4 p a f j K Q ~ / / ^ & r.3X3X5X4X",
"5X5X5X5X5X6X5X5X5X5X5X5X5X4X5X5X5XQ.^ Q K W } x.+.#.M.M.B.J.Z.B.@.M.H.J.Z.m.u.<. . .z a p p 8 4 8 p a a j h # Y.5X3X5X5X",
"5X5X5X5X5X6X5X5X5X5X5X5X5X5X5X5X5X].^ Q I Q g 2.N.B.B.M.B.J.G.D.>.j.~.~.~.J.F.F.M.D.,.Q I Q K j j j a k &.n B @X5X4X5X5X",
"5X5X1X5X5X5X5X5X5X4X5X5X5X4X5X5X5X].^ Q K Q 8 *.D.D.B.M.B.Z.P.uXA iXgX[.~.J.F.D.M.F.3.~ U Q Q U ~ ~ I r.-X#X$X<X5X5X4X5X",
"5X5X<X4X3X5X5X4X3X4X4X3X3X3X3X3X1X X^ Q I Q a %.D.N.D.M.M.h.iXdXuXyXdXsX*XJ.F.N.M.D.3.~ U Q Q U ~ ~ z E.5X5X5X4X5X4X3X3X",
"3X<X<X<X<X3X5X3X3X3X3X<X3X3X3X3X<X X^ Q K Q a { D.M.M.M.a.A dXfXL.tXdXfXhXZ.B.D.M.D.3.Q U Q Q U ~ ~ z }.5X3X5X3X5X3X<X<X",
"3X<X3X3X<X<X3X3X3X3X3X3X3X3X3X3X3X X^ Q I W f [ D.m.N.n.*.).kXaXh.A _.hXpX_.B.B.M.D.3.Q U Q Q Q ~ ~ x @X5X3X5X<X5X3X<X<X",
"<X<X<X3X<X<X<X<X<X<X<X<X3X3X3X3X3X@X%.Q I W h Y S.m.S.s.w.aX_.(.h.=.P.aXdXaXS.S.m.D.3.Q Q Q U Q ~ Q N :X<X<X5X<X5X<X<X<X",
"<X<X<X<X<X<X<X<X<X<X<X<X3X3X3X3X3X@X%.W I I h x N.m.S.s.h.pXgXA.a.@.).pXsXkXS.S.m.D.3.I Q Q I Q Q K &.<X<X<X5X<X4X<X<X<X",
"<X<X<X<X<X<X<X<X<X<X<X<X<X3X3X3X3X@X%.K I K j x i.i.s.u.a.a.j.s.,.@.M.M.S.A.s.s.i.A.,.I Q I K Q Q j 0.3X<X<X4X3X3X<X<X<X",
",X<X,X<X<X<X<X<X<X<X<X<X<X<X<X<X<X X^ K I K I T { | | ..........P Y %.%.%.^ ^ ! ! ^ U K U K j Q Q j T.1X<X<X3X3X3X<X<X<X",
":X<X,X,X<X<X<X,X,X,X,X,X,X<X<X<X,Xl.Q j I j I T [ Y [ Y Y Y Y Y [ [ T T ^ ^ ^ ^ ^ ~ U U K K K Q Q g E.<X<X<X<X<X<X<X<X<X",
":X,X:X,X,X:X,X,X:X,X,X,X,X,X,X,X$X*.K j K K I [ | | | x x [ [ [ [ { | | T ^ ^ ^ Q Q U I K j K Q Q x .X<X3X<X<X<X<X<X<X,X",
":X:X:X:X:X:X:X:X:X:X:X:X:X,X,X,XQ.h h h K j K g | | | [ l ,.u.u.u.2.@.>.>...| T T ! U I j j I Q K B :X<X3X<X<X<X<X<X<X,X",
":X:X:X:X:X:X:X:X:X:X:X:X:X:X:X;X&.6 p f j K K d ,. .{ | P P 2.m.D.!.!.V.K.V.n.i.1.i.>.I K j I Q g Y.<X<X3X<X<X<X<X<X<X,X",
"-X$X$X:X:X-X-X:X:X:X:X:X:X:X:X|.k 5 3 d j K W d i.s...| | x ] s.N.J.!.J.~.J.N.M.m.N.a.U K j K j 9.-X<X<X<X<X<X<X<X<X<X:X",
"-X$X$X:X:X-X-X:X:X-X:X-X:X:X:Xk.1 < 1 p h W W g m.J.n...[ { l o.m.V.!.G.!.J.B.s.m.N.s.U h h h m |.<X<X,X<X<X:X,X<X<X<X:X",
"-X$X$X-X-X-X:X:X-X-X-X-X:X:X+Xm < < 1 5 h W E a m.J.J.m. .[ [ l <.N.!.G.K.J.M.2.j.s.n.I a p p Y.,X<X<X,X<X,X:X,X<X<X<X:X",
"-X$X$X$X-X-X:X:X-X-X-X-X-X:XE.q < , < 3 f h f 5 m.J.J.J.a.| [ Y x i.!.V.K.V.m.,.V N i.z e 3 b +X:X,X,X,X,X,X:X:X,X<X,X:X",
"$X$X+X$X$X$X-X-X-X$X-X$X-X-X0.< < , < < d p 6 1 s.J.H.J.Z.2.[ T Y P B.V.J.B.a.=.; c s.x 5 < 9.:X:X,X:X:X:X:X:X:X,X,X,X:X",
"-X$X$X$X$X$X$X$X$X$X$X$X$X-Xr.< , , , 1 p 5 1 < 2.J.Z.H.H.M.>.T T z [ n.V.N.u.V ; N m.x 3 < r.:X:X:X:X:X:X:X:X:X,X:X,X:X",
"T.e.T.#X$X$X$X$X$X#X$X+X$X$XE.1 & , , 3 p 1 < , 1.!.Z.J.J.M.a.%.I U z [ m.m.u.V ; &.m.x < , q.:X:X:X:X:X:X-X:X:X,X,X,X:X",
"X . O e.$X#X$X$X#X#X#X#X$X$X}.e & , & 5 6 < < & >.!.V.J.Z.N.s.u.| I U z >.s.i.V c &.s.l , & q.:X:X:X:X:X:X-X:X:X:X:X:X:X",
"      r oXOXOX+X#XOX#XOX#X#XoXb , , , 5 5 < , & >.J.V.H.Z.M.s.i.,.T T T Y 1.i.=.c *.s.z , & 0.:X-X-X:X:X-X-X-X-X:X:X:X:X",
"  . . C #XOXOX#XOXOXOXOXOXOXOX&., , , 3 3 , , & ..H.V.Z.V.N.i.u.2.,.| T T [ 1.h.c *.s.x , & 9.-X$X$X-X:X-X-X$X-X:X:X:X-X",
"- o - e.(.oXOXOX#XOXOX@XOXOX#Xr.< , < 3 1 < & &  .H.V.V.V.M.i.,.2.i.,.[ [ [ | =.c $.s.x , & 9.$X$X$X-X:X-X$X$X$X-X-X-X$X",
"M + o + - C .XOXOX@XOXoX@XOXOXE.1 , < 3 1 < & @ | J.V.B.V.M.2.1.1.i.i...[ [ { $.M { a.] , @ 9.$X$X$X$X-X$X$X$X$X$X-X$X$X",
"o o o X X + e.OXOXoXoXoXoX@XOX^.e @ < 1 1 < , & [ J.V.B.V.M.2.,.u.i.i.,...[ { { [ *.s.[ < @ B $X$X$X$X$X$X$X$X$X$X$X$X$X",
"o o o X X X M |.oXoX.XoX.XoXoX.Xb @ < < < , , & ] Z.V.B.B.m.,.,.i.u.a.2.1. .[ | [  .i.{ < @ B #X#X$X#X$X#X#X#X$X$X$X$X$X",
"o o o X X . - V T.oX.X.X%XrX%XoX9.@ , < 1 , , & x C.B.M.B.n.,.>.a.u.a.2.u.1.| | { [  .[ < @ B OX#X$X#X#X#X#X#X#X$X$X#X#X",
"o o o X . X c Z U.oX%XcXBXAXNXcXr., , < 1 < & , g %.%.-.,.,.>...u.1.1.,.1.u...{ { [ [ l < & N @X#X+XOXOXOXOXOX#XOX#X+XOX",
"X X X X . V *X*XXXzXBXAXAXNXvX=XE.9 , < 1 < & , d z z z I Y Y T [ | | [ [ [ [ [ [ [ [ l < & b oXOXOXOXOXOXOXOXOXOXOX#XOX",
"r o X . ; _.*X(.e.Z NXNXvX=X.X.X}.b , < < , @ , d I z z z z z x P Y Y P P P P ] ] [ [ l < & b oXOXOXoXOXOXoXOXOXOXOXOXoX",
"L.; o o ; c r = - V zX=XXX|.|..X.X&., < < , @ & q o.>.o.o. .] x { { { [ [ [ ] ] ' ] ] l < & b .XOX@XoXoXOXoXoXoXoXoXoXoX",
"D # O X X . r e.T.}.|./.|.|.|.|..X9.& < < , @ & q m.C.M.M.s.>.| 1.t.<.1.1.t.<.t.1.<.*.' 1 & k .XoXoXoXoXoXoXoXoXoXoXoXoX",
") S O . . O V {.^.^.}.}.|.XX|.|..X&.@ , < , & , 3 1.m.M.N.s.,.| >.u.<.1.1.u.1.i.i.a.i.*.1 @ k |.oXoXoXoXoXoXoXoX.XoXoX.X",
") F : : : : E k.f.g.g.g.R.lX*X*X{.&.1 1 1 , @ , , q e 9 e e e e l { *.>.1.u.1.i.a.a.i.>.3 @ t |.oXoXoXoXoX.X.X.X.X.X.X.X",
"_ F S F F S G i.f.f.f.f.P.lXxXxXP.t.X.{ { ' x l l ' { n m k k q 9 9 * 9 9 e k m *.<.t.>.3 @ t }..XoX.X.X.X.X.X.X|.|.|.|.",
"R F S F S F G a.f.f.(.mXMXVXmXxXI.h.<.<.@.@.O.@.O.O.O.O.O.O.o.o.X.X.{ ' m k t 0 9 9 9 e 1 @ t }..X.X|.|.|..X|..X/.|.|.|.",
"( F 7 7 7 F F ,.g.f._.nXZXZXVXMXMXjXy.<.<.<.<.<.<.t.t.t.t.<.<.<.*.*.O.O.O.o.o.X.X.{ ' x 3 @ t ^..X|.|.|.|.|.|.|././.}.}.",
"x.#.q 2 L J , k g.g.(.jXCXZXVXVXbXbXP.<.<.<.<.<.1.u.u.u.u.u.t.t.t.t.1.<.<.<.<.@.O.O.O.o.' x m R.E.^.^.}.|./.|.|././././.",
"+.L $ &.g.f.t v f.g.l.hXCXCXnXbXbXjXh.1.1.1.1.1.t.u.u.u.u.u.t.t.t.t.t.t.t.t.t.t.t.1.<.<.O.O.<.y.d.d.d.Y.R.E.Q.}.}././.^."
};
