/* XPM */
static char *fa110f4daf9c42a5c655633effce1feeZl1dtnyRk814g804[] = {
/* columns rows colors chars-per-pixel */
"60 60 46 1 ",
"  c #87C2F6",
". c #89C2F6",
"X c #8FC8F7",
"o c #8FC9F8",
"O c #90C9F7",
"+ c #95CDF9",
"@ c #98CFF9",
"# c #97D0FA",
"$ c #9AD1FA",
"% c #A2D6FB",
"& c #AAD6FA",
"* c #A5D9FC",
"= c #ACDDFD",
"- c #B3DEFC",
"; c #B9DDFA",
": c #AFE0FF",
"> c #B3E1FE",
", c #BBE5FF",
"< c #BCE5FE",
"1 c #BEE5FE",
"2 c #C3E7FE",
"3 c #C4E6FD",
"4 c #C9E7FC",
"5 c #C2E8FF",
"6 c #C6E9FF",
"7 c #CBEBFF",
"8 c #CCEBFF",
"9 c #CEECFE",
"0 c #D3EEFF",
"q c #D6ECFD",
"w c #D9EEFD",
"e c #D7F0FF",
"r c #DBF1FE",
"t c #DDF2FF",
"y c #E3F2FD",
"u c #E3F4FE",
"i c #E6F6FF",
"p c #EAF7FF",
"a c #EEF7FE",
"s c #EBF8FF",
"d c #EDF8FF",
"f c #F1F9FF",
"g c #F6FBFF",
"h c #F7FCFE",
"j c #FBFDFF",
"k c white",
/* pixels */
"............................................................",
"............................................................",
"............................................................",
"............................................................",
"............................................................",
"............................................................",
"............................................................",
"............................................................",
"............. ..............................................",
"...... .....................................................",
"............................................................",
"............................................................",
"............................................................",
"............................................................",
"... ........................................................",
"... ... ....................................................",
".....................XXXXXXXXXXX..........XXXXXXXXXXXXXXXXXX",
"+++++++++OXXXXXXXXXXXX+OOOOOOOOOXXXOOOOO++++++++++++++@+++++",
"#########++++++++++++++++++++++++++++++++#########$#$$######",
"++++++++++++++@#####+++@@+##@#######@@@@###################@",
"++++++++++++++@@##@@++++++++@##@@+@@@++++@@@@@@@@@@@@@@@@@@+",
"+++++++@@@@@@#####@@+++@@@@####+@+@#######################@@",
"+@+@+++++++@@@@@@@++++++++$=12-$++@#########@+++@@++++@%->%@",
"++++++++++++++++++++++++++=7jjgq@+++++++++++++++++++++-ygj6%",
";$&33%++++++++++++++++++o+>fkkkh34&++++++++++++++oo+o$ikkkgi",
"kidkkw*++++++#=-&%=>%++$%=rkkkkkfjt%+++++++++++++%>-=8kkfdgj",
"fsihr>%@++@%>2pjgadgw$-ypfkkkkkkkkpy-+++@@@+++++=pkgfkjdpyqr",
"76,>%$####1pfifkjdhkj4pkkkkfkkkkkkkkq$$$#####%22pkkkkjggkd2>",
"*=%###%*%=fkkgtt79ikkhkjdsdgkkkkkkkkj722-$$#%tkkkkkkkfjkfq=%",
"%**%$*291,ijfr5==,9tuggt078jjkkfdgjkkjdgd=##-jkjgjfphkkr-*%$",
"2upt2tjki9,151*$%=>,1561>=>9edpq66qhkkkjkw@+%8e09rtjkkd-%=:>",
"fkkkgkkkkd7,>:$##$$$%=*$#%>0ffr721>qwtgffg%++$==6qtgfu>$=>60",
"kkkkkkkkkjit01=%$$$$#$%===0kkkgpjhr-%*=->7>$+++$>6675=#*>0it",
"kkkkkkkkkkkkfe1,,:%$#%:>>6dkkkkkkkkt92%#$$$#+###$%%%$$$=8hkj",
"kkkkkkkkkkkkkdryr6=$#*>>qjkkkkkkkkkkkj3@######$$$$##$$$>dkkk",
"kkkkkjgkkkkkkkjkjt>$%=>7jkkkkkkkkkkkkky%+###$#######$*=qkkkk",
"kkjjitikkkkkkkkkkf1=>>:tkkkkkkkkkkkkkkd=++++##@@++++*>ukkkkk",
"kprr7ikkkkkkkkkkkf79rr,ikkkkkkkkkkkkkkjy1$++++++++#$:tkkkkkk",
"y9770jkkkkkkkkkkkgidkkpakkkkkkkkkkkkkkkkj8%++++++$>1tjkkkkkh",
"9tdfjkkkkkkkkkkkkkkkkkkhkkkkkkkhkkkkkkkkkh1%+++++=yjkfkfkkjt",
"qkkkkkkkkkkkkkkkkkkkkkkkkkkkkkkpjkkkkkkkkkt=###$*7jkdryrfji0",
"dkkkkkkkkkkkkkkkkkkkkkkkkkkkkkjthkkkkjkkkkjr=*>2yjkhq6711000",
"kkgkkkkgphkkkjjfgkkkkkkkkkkkkkp0fkkkgujkkkkkirtfkkkg9>>>>19i",
"tr9dkjiq0fkkptr7tjkkkkkkkkdfdiq0tdpir0jkkkkkkkkkkkkki>:,ufgk",
"q2,9re666eir611>6rikkkkkkje7097009q091yffgkkkkkkkkkkp,>rkkkj",
"jhfpypdffpr7,,1660ikkkkkjiq5,,1rgy77r520076ykkkkkkkki55gkkkj",
"tpjkkkkkkkkgdieyupkkkkkkjdie009ukp0dkg71qr9ukkkkkkkkiufkkkht",
"91ykkkkkgigkkkgkkjkkkkjkkkkjgrikkkkkkkfijkkjkkkkkkjffkkkkgt0",
">:1gkkjir0ukkkkkkkkkgpyjkkkkkihkjpgfjkkkkkkkkgfkkkdrhkfgfr9,",
"5,>rjjiq07qjkkkkkkkhr0qidhkkjdkjy0eqykkkkkkkkydkkkkufperr92,",
"giq17r007rqikkkkkkkjr000qtfgtydu9000rjkkkkkkargkkkkp82091,tf",
"kkkd621,ikkjkkkhgkkkierq00qq00766qp00kkkkkkpqqgkkkkp7>,>>tkk",
"kkkkhdyijkkkkkkyyjkkjhjpqqqq060dhhkfrpfjkkde0rgkkkkkt15,,gkk",
"kkkkkkkkkkkkgdu0qtujkkju0765,5gkkkkkt9qtttqqujkkkkkkgfjfrjkk",
"gkkkkkkkkkkjr0quur0ppur01>606ykkkkdyq279riqtjkkkifkkkkkkjgkk",
"tjkkkkkjkkkgr0ykkgtrpirq9tgkhjkkkfr07>7phkjhkkkkirpjkkkkkkjp",
"tikkkkhdkkkkftdkkkjgdugkkkkkkkkkku007tjkkkkkkhkjt0rjkkkkkkkp",
"dtkkjdrtjkkkkjkkjkkt,rkkkkkkkkkkdq00yfkkkkkjdruu00qijjjfugkk",
"70pye022righkkkgijf21dkkkkjiufhpe0060rpgkkfe0967,19qrrr7>6tq",
":,,>,,>>>,17pkki66edgkkkfpt00qrq0q7>,12tgfr5>>>>::1q007>::>:"
};
