/* XPM */
static char *_c38e596db0d44119795fc647d301cdbs1vx1hPQErt7bztY[] = {
/* columns rows colors chars-per-pixel */
"60 60 252 2 ",
"   c None",
".  c #31321C",
"X  c #14093A",
"o  c #37173B",
"O  c #321532",
"+  c #323033",
"@  c #3A1F1D",
"#  c #6F1913",
"$  c #5B3814",
"%  c #552D13",
"&  c #642513",
"*  c #6C3817",
"=  c #55332C",
"-  c #4F2F31",
";  c #6A362C",
":  c #491B26",
">  c #2C471E",
",  c #264925",
"<  c #26582A",
"1  c #385031",
"2  c #376836",
"3  c #377738",
"4  c #316C29",
"5  c #1F5A1F",
"6  c #584E15",
"7  c #6C4515",
"8  c #684718",
"9  c #714917",
"0  c #744C1A",
"q  c #794F1B",
"w  c #70441F",
"e  c #7B521E",
"r  c #75501C",
"t  c #6B4C0E",
"y  c #4A4F32",
"u  c #7E5520",
"i  c #795927",
"p  c #6C4E29",
"a  c #4A6D35",
"s  c #73702C",
"d  c #61671A",
"f  c #3D1B43",
"g  c #3D1642",
"h  c #362B49",
"j  c #292B73",
"k  c #1C1C64",
"l  c #431D48",
"z  c #45234C",
"x  c #472649",
"c  c #4C2653",
"v  c #532D5B",
"b  c #56335A",
"n  c #4F2F4D",
"m  c #5B3762",
"M  c #582C61",
"N  c #6A366C",
"B  c #6F2A50",
"V  c #3A5C5F",
"C  c #554B4C",
"Z  c #4D6E48",
"A  c #4C4B6E",
"S  c #6B4870",
"D  c #626863",
"F  c #891615",
"G  c #B91818",
"H  c #AE1611",
"J  c #B42217",
"K  c #932220",
"L  c #C5191C",
"P  c #D5171A",
"I  c #C5221E",
"U  c #C31920",
"Y  c #D41F22",
"T  c #CA2824",
"R  c #D73727",
"E  c #D42B29",
"W  c #83581D",
"Q  c #935019",
"!  c #976C17",
"~  c #A77217",
"^  c #815721",
"/  c #845A23",
"(  c #895D25",
")  c #934F2F",
"_  c #AC5123",
"`  c #8D6228",
"'  c #9B6D2B",
"]  c #946827",
"[  c #9E712D",
"{  c #937426",
"}  c #9D7333",
"|  c #97702E",
" . c #A1722E",
".. c #A57527",
"X. c #A37532",
"o. c #A67834",
"O. c #A97A35",
"+. c #AC7E3A",
"@. c #A57B39",
"#. c #AE7434",
"$. c #D44B2F",
"%. c #E24A39",
"&. c #D36F28",
"*. c #EA7822",
"=. c #EB7422",
"-. c #C67C19",
";. c #8D2A73",
":. c #915751",
">. c #966860",
",. c #DC6257",
"<. c #3B853B",
"1. c #378A27",
"2. c #31811F",
"3. c #428E3D",
"4. c #6A9531",
"5. c #67A729",
"6. c #30E91B",
"7. c #7CD51A",
"8. c #48EC31",
"9. c #73D332",
"0. c #3A8F43",
"q. c #499247",
"w. c #54A94C",
"e. c #56AB53",
"r. c #56B14E",
"t. c #65B658",
"y. c #57876C",
"u. c #6BB26D",
"i. c #6E9C6D",
"p. c #77C765",
"a. c #69EB57",
"s. c #AD803D",
"d. c #AE8A33",
"f. c #B2823D",
"g. c #B79029",
"h. c #AFA623",
"j. c #D19017",
"k. c #F4891F",
"l. c #F6971D",
"z. c #E9961B",
"x. c #F9A819",
"c. c #FCB815",
"v. c #F1B311",
"b. c #D09235",
"n. c #F18A21",
"m. c #FAB329",
"M. c #CFB021",
"N. c #96D52E",
"B. c #8BE32D",
"V. c #92CB29",
"C. c #FCC60D",
"Z. c #FCC714",
"A. c #FCD918",
"S. c #F8D50D",
"D. c #FBCB24",
"F. c #FDD627",
"G. c #F9D139",
"H. c #D4F931",
"J. c #EBD217",
"K. c #B48542",
"L. c #B48D51",
"P. c #9DA45D",
"I. c #DD8E4C",
"U. c #CCAE4A",
"Y. c #C99463",
"T. c #D8A668",
"R. c #8AC84B",
"E. c #B2D04F",
"W. c #94E94E",
"Q. c #8BD171",
"!. c #AFD56B",
"~. c #AAE673",
"^. c #A4E95D",
"/. c #F9D24F",
"(. c #DBF750",
"). c #FCD769",
"_. c #DCEE65",
"`. c #F3EB72",
"'. c #DFD657",
"]. c #292F8E",
"[. c #2C38AC",
"{. c #1723A2",
"}. c #523598",
"|. c #384997",
" X c #3A4AB3",
".X c #4D4EB2",
"XX c #5F6293",
"oX c #1F37C6",
"OX c #334BD2",
"+X c #2B52E8",
"@X c #495ACE",
"#X c #5367D1",
"$X c #4E6CEC",
"%X c #6C7CE0",
"&X c #A51784",
"*X c #AE3291",
"=X c #89339A",
"-X c #D319AF",
";X c #D31BB0",
":X c #C715A7",
">X c #D523B3",
",X c #D72CB6",
"<X c #DA3CBC",
"1X c #D833B9",
"2X c #C824A1",
"3X c #C63D9B",
"4X c #AE4E97",
"5X c #BB54A2",
"6X c #9E6991",
"7X c #C57A84",
"8X c #DB43BE",
"9X c #DA46BE",
"0X c #CE4EAE",
"qX c #CD71B0",
"wX c #A659C7",
"eX c #DD4CC1",
"rX c #DC46C0",
"tX c #DE54C4",
"yX c #DF59C6",
"uX c #E05CC7",
"iX c #E05EC8",
"pX c #DC73C8",
"aX c #E164C9",
"sX c #E36CCC",
"dX c #E061C6",
"fX c #E472CF",
"gX c #E17AC9",
"hX c #E67BD1",
"jX c #E575D0",
"kX c #6FA5A9",
"lX c #748AFD",
"zX c #6A85FA",
"xX c #6C9FD9",
"cX c #A29899",
"vX c #C78488",
"bX c #D59590",
"nX c #DBA7B4",
"mX c #E1ABB7",
"MX c #E0A29B",
"NX c #B9E984",
"BX c #A2DC91",
"VX c #F4F195",
"CX c #E5D894",
"ZX c #E782D4",
"AX c #E88AD6",
"SX c #EB96DB",
"DX c #E8A5D7",
"FX c #EEA6E1",
"GX c #D988D4",
"HX c #F9F5D5",
"JX c #FBDDC5",
"KX c #B0B0DA",
/* pixels */
"              ` / ( / W / / / ^ ^ e e e W ^ / / ( ( e W W W ( ` ` ^ ^ ^ e W ^ e ` ] ( W ( / e / ` ` / ` ]               ",
"          [ ( W 0 q q 0 0 q q 0 0 0 0 0 0 0 0 e q 0 0 0 0 0 e u e 0 0 0 0 q e 0 e / ^ q e e 7 0 ^ ^ e q 0 e ]           ",
"        ' ( / ^ e e e q q q 0 0 0 q 0 0 9 7 7 9 0 0 0 q 0 0 q q 0 e ^ e e u ^ q q / / ^ ^ ^ 0 9 e e e 0 0 8 e ` }       ",
"      ' ( / ^ e ^ / ` ( / / ^ W e e e 0 0 9 7 7 7 7 0 e e e e 0 0 ^ ` ( ( ( ( e e ^ ( ` ` ` ( ^ ( ( ( ^ 0 7 q u / `     ",
"    ' ] ( ( ` ] ' X.o.O.X.O.o.X. . .' ] ] ] ] ' ] W ( ] ] ] ] ] W [ +.O.O.O.O. .' [  .X.X.O.O.X.O.O.+.O.' q 0 e e ^     ",
"  X.' ] ` ] ` / ( X.X. . . .X.X. . .' ] ' ' [  . .' ] ] ] ] ] ( W ' O.O.O.O.O.X.'  . . .X.X.X.[ X.O.+.+.f.} e e e 0 `   ",
"  [ ' ' ] ( q 0 ^ | @.@.o.o.@.+.@.@.X.} @.@.s.@.s.@.' } } } } | ` } s.s.K.K.K.s.o.@.@.@.K.K.@.} @.s.K.K.K.+.' e q 0 e   ",
"O.o.X. .W 9 0 9 0 :.,.7X7X7X7XvXvXvXvXvXvXvX7X7X7X7XvXvXvXvXvXvX7XvX7X7X7X7XvXvXvXvXvXvXvXvX7X7X7XvXbXT.L.f.X.` 7 0 e ` ",
"K.K.K.f.e $ 7 $ B 2X,X1X8XeXeXtXtXtXuXiXiXaXeX1X1X<XaXsXsXsXsXsXsXaX<X1X1XeXaXiXiXuXtXtXtXeXeX8X<X<XdXDXT.+.X.' 0 0 0 ^ ",
"f.+.f.f.u $ 7 % ;.-X;X;X;X1X<X8X9X9XeXeXtXtXeX>X-X;XeXiXiXaXaXiXiXtX>X;X>XeXtXtXeXeX9X9X8X<X<X>X;X;X>XsXnX@.X.X.e 9 0 e ",
"[  .O.+.^ 0 8 : &X;X;X-X;X>X8X9XeXeXtXtXtXyXuX1X-X;XeXaXaXaXaXaXaXtX;X;X1XuXyXyXtXtXeXeX9X8X,X;X;X;X-XeXnXL.o.o.^ 0 0 q ",
"' ' O.+.^ e 8 = &X;X-X-X;X;X1XeXtXtXtXyXuXaXaXtX;X-X9XsXsXsXsXsXsXtX;X;XtXaXaXuXyXtXtXtXeX<X;X;X;X;X;XrXnXL.@.@.( 0 0 q ",
"X.'  .O.^ e 0 = *X>X;X;X;X;X;X<XtXyXuXaXaXaXsXsX,X-X<XfXfXfXfXfXfXeX-X,XaXsXaXaXaXuXyXtXeX>X;X;X;X;X>XtXmXY.s.@.( 0 0 e ",
"O. .X.X.e 0 8 = *X<X1X>X;X;X;X>XeXiXaXaXsXsXfXfXeX-X1XhXhXhXhXhXhX9X-XeXfXfXsXsXaXaXiXtX,X;X;X;X>X1X<XtXmXY.f.f.( 0 0 u ",
"O.X.O.X.e 0 8 = *X<X8X<X>X;X;X;X,XuXsXsXfXfXjXhXsX>X,XhXZXZXZXZXZX<X>XsXhXjXfXfXsXsXaX<X;X;X;X,X<X8X<XuXmXY.K.K.` 0 0 u ",
"O. .O.o.e 0 8 = *X8X9XeXeX1X;X;X;X<XsXfXjXhXhXhXZX8X>XhXAXAXAXAXZX1X8XZXZXhXhXjXfXsXeX;X;X;X1XeXeX9X8XiXmXY.f.f.` q q e ",
"O.' [ X.e 0 8 = *X8XeXeXtXyX8X>X;X;XeXfXqXbXbXMXMXbX0XgXSXSXSXSXZX,XsXAXAXZXZXhXhXuX>X-X>X8XyXtXtXeX9XaXmXL.o.o.^ e u / ",
" .[ X.o.e 0 8 = *XeXeXtXyXiXaXtX,X;X2XY.'.)./.F.F.F./.CXmXSXSXSXhX8XAXSXAXAXZXZXfX,X-X,XtXaXiXyXtXeXrXaXmXL.X.X.^ e u ( ",
" .X.+.+.^ 0 8 = 4XeXtXtXuXaXsXsXaX3Xb.'.W.'.Z.Z.Z.Z.Z.`._.mXSXFXhXaXSXSXSXAXAXZX<X;X<XaXsXaXaXyXtXtXeXaXmXL.X.[ e q u / ",
" . .O.O.^ 0 8 = 4XeXtXyXaXaXsXfXqXb.G.9.6.W.G.D.D.D./._.H.(.mXFXhXAXFXSXSXSXSXtX>XeXhXhXfXsXaXdXyXtXeXsXmXL.[ } ^ 0 e ^ ",
" .O.f.f.( 0 8 = 4XtXuXuXaXsXfXfX>.G.W.6.6.8._.G.G.G.`.(.H.H._.DXSXFXFXFXSXSXsX1XaXZXZXhXjXfXsXaXiXuXuXsXnXL.X.X.^ 0 0 u ",
"O.O.o.X.e 7 8 = 4XtXuXaXaXsXjXqXU.'.8.6.8.a.^././.).`.(.(.H.H.mXDXDXDXGXqX6X;.4XqXGXZXZXhXfXsXdX0X5X4X4X>.@.o.@./ 0 0 e ",
"+.O.[ ' 9 8 8 : &X<XtXaXsXfXjX>.G.^.6.8.8.a.a.CXVXVXVX_.(.H.H.'.cXD D Z Z Z q.a Z S 5XgXhXhXqX>.>.P.P.4.4.s ] +.( 0 9 e ",
"+.+.+.X.0 0 8 : &X;X>X1XtXsXpX@.F.W.8.8.a.a.BXHXHXHXVX_._.(.(.'.Z Z q.w.e.w.w.<.3 4 1 >.pXqX:.g.U.!.!.R.9.R.4.` / 0 0 e ",
"O.s.f.+.^ e 8 : &X;X;X;X;X,X0XX.F.BXkXkXxXxXKXHXHXHXMXT.Y.I.I.T.e.q.e.e.e.t.t.w.<.3 < , S :.-.b.U.E.E.~.~.~.^.4.8 q 0 e ",
"+.s.f.+.^ e 0 = *X,X>X;X;X-X:X) A.cX+X+X$XzXxXHXHXJX,.R E U G L.t.t.p.p.e.0.<.q.r.w.4 < . ; &.I.U.E.E.NXNXNX^.7.6 q e / ",
"s.f.f.+.^ e 0 = 5XtXyXtX*X*X8X:.J.cX+X+X$X$XzXGXGXqX%.E T G G Y.t.Q.e.p.Q.p.e.<.<.r.w.<., . #.I.U.E.N.^.~.^.W.7.d q e / ",
"+.+.+.O.u 0 8 = 5X4X>.4XB ;.6XC M.'.OX+XOX|.wXwXwXwX,.E U H $.P.e.Q.e.e.Q.p.t.w.3 3 w.w.3., p b.U.V.N.N.W.W.B.7.6 e e / ",
"X.X.o.o.u 0 8 - N b h l C Z 2 1 { U.XXoXV a S }.N =X5XE G G Y.w.e.Q.t.0.t.p.p.r.4 < <.r.w.2 y d.h.V.V.B.B.B.B.5.8 e e ^ ",
"] ' o.@.u * n c f o M m y 4 4 2 y { = V 3 4 2 1 4 v =X,.G ,.u.q.p.Q.p.q.<.e.t.t.<.< 4 r.w.3 > s V.V.7.B.B.B.B.4.q q 0 ^ ",
" .X.o.X.e - N 6XS f b c y 2.4 3 < % = a 4 < 3 1.4 1 n >.Y.i.u.V y.u.Q.e.3 3.r.r.3., < w.r.3 , 4.9.R.R.V.V.7.5.i ^ 0 0 e ",
"X.o.O.o.e = M S m - - l o < 1 1 1 + o - 4 4 4 1 h 1 2 C Z A  X.Xk X D u.<.< 3 w.q.< , <.t.q., 4.R.!.!.U.g.5.d | W 9 9 q ",
" . .X.X.e ; x c c f f v S n z f + l N b y 4 1 c f f x y h {.[..X].X ].xXy.< , <.r.q.< 3 t.q.1 Q.NXE.E.U.b.#.i X.e 7 9 0 ",
"[ ' X.X.e 9 - c f l o f m x o o o l N c f z n f f v XXA k OX@X[.{.].%X%XXXq., < 3.r.2 3 t.3 a ~.NXE.E.U.b.&./ [ e 7 9 q ",
"[ ] ] ' 0 9 = f f v S z o O o z c l - - c S S o o l b c {.oX X.X.X$XlX$X@Xe.3 , 3 r.2 3 e.< 4.Q.kXXXD P.I.&.( X.e 0 0 e ",
"o.[ ' ' e ; n l o z m z v m l N 6XS - x f z x o o z m h k h y a C A %XzX#Xi.y.Z Z e.q.t.q.a y.|..X}.X h 6XL.` O./ e u ( ",
"+.+.O.X.e = c S b o o o l v c N XXM l o g z f z S m x - y a a a a a A @X X.Xj h V i.D D V D |.OX[..Xj k #X#X@.s.( q e / ",
"f.f.+.o.e * n c o l m v f n c M c c c f v S b f z z - p s s a a a a 1 j [..X}.X k %X X{.{.[. X#X.X[.[.#XzX#X>.K.` q q e ",
"f.+.f.K./ 0 - l f o x x c N N N m c l f z v f O o x C n S - = y 2 2 1 j |.j {.]..XlXOXOX@X[..X].#X$X$X#XD C C +.( 0 0 e ",
"+.f.K.f.( q = z b o . . o l - C 4X;.z o o O g v m z x - :.@.{ ! s a y - C |.@X$XlXzX+XOX@X[.}.X ].oXOXXXj.z.r } ( 7 8 0 ",
"@.+.+.O.^ q $ : # & . , @ @ , - 4XN z c S f l M v O i b.m.m.c.c.x.j.e p + j [.$XlXlX+X[.$X X].X j [.oXC v.j.8 } ^ 7 7 0 ",
"X.X.X.[ e 8 & H L U J # 5 , , : - . n c S o O O O ` m.c.c.c.c.c.c.z.g.{ O + i A @X$X+X[.OX$X@X.X#X Xj ~ C.M.8 | e 7 0 e ",
"X.X.[ ' q $ F Y %.,.%.J > > 5 . > & K B z f v n / m.c.c.Z.G./.D.c.x...j.! 9 x.L.h [.OXOX+XzXlXlX#XC P.D.C.v.t ] u 0 0 e ",
"X.X.X.' 0 % G R ,.,.%.R L G F > , K R $.; z z p z.c.c.c.D.).VX).m.c.x.x.x.! j./.U.y ].oXOX%XlX@XA P.`.`.).F.~ 0 e 0 0 e ",
"X.o.o.X.q & G E ,.%.R %.R R E J F J %.,.%.K : ! x.x.c.c.G.).CX/.m.x.x.x.x.-.~ x.G.J.! h ].|.A s M././.).VXF.v.r 9 0 0 e ",
"+.s.@.O.u # G Y %.R P Y P E E P P U T %.,.Y # j.x.x.x.x.m.)./.m.x.x.x.x.l.n.! z.c.A.A.J.h.h.M.S.A.D./.G.`.Z.c.! 8 e 0 ^ ",
"f.K.f.+.u # L E %.T L L P P P G L U L $.%.U F j.x.x.x.x.m.m.m.l.l.l.l.l.l.n.! U.G.c.Z.F.F.A.A.Z.C.A.D.G.G.C.x.! 8 e e ^ ",
"f.f.f.+.u & G R R T U U U U G H G G G R %.T F j.x.l.l.l.l.l.l.l.l.l.l.l.k.*.Q b.)./.C.C.c.C.C.S.A.A.C.A.A.c.x.W w e e / ",
"f.f.f.f./ & G R E L L L G G G G I G G T $.T F ~ l.l.l.l.l.l.l.k.k.k.k.k.k.=.Q j.x.D.A.A.A.A.A.F.Z.C.S.A.C.c.j.8 u q e / ",
"O.O.+.+.^ & G R T L L I H J G I J G L T R T F Q z.l.k.k.k.k.k.k.k.k.*.*.=.&.W j.v.m.D.D.D.D.D.c.C.S.F.Z.c.x.! 8 e 0 q ^ ",
"[ X.+.O.e & G T U L G G J L L H J L L L R T F ; &.n.k.k.k.n.k.k.*.*.=.=.=._ = ~ c./.`.).A.S.S.S.A.F.Z.c.x.j.8 ] e 0 0 e ",
"X.X.o.X.^ % H L L G H L L G H G J G L L E I F B ) &.*.*.*.n.*.*.*.*.=.&.$.; ;.e x.x.Z.F.F.A.F.F.F.C.c.x.j.t i X.e 7 9 ^ ",
"X.X.X.o.| $ F L G H H G # % # L L H G L L G # = % Q &.=.*.*.*.*.&.&.&.&.* % ; % ~ x.x.x.c.c.c.c.c.x.x.j.t w X.] 0 0 0 ( ",
"  o.X.X.X.u & F H H F & $ 8 $ # H G H G L H % 8 8 $ * _ &.&.&.&.&.&._ * % 8 7 $ $ ! z.x.x.x.x.x.x.j.! % 8 ` ' e 0 0 0   ",
"  X.X.@.o.X.u $ & & $ 9 q e e 8 & F H H H # % q q 9 $ $ * Q _ _ Q * $ $ 7 e e q 7 $ 6 W ~ j.j.~ e $ $ 9 ^ ' ^ 0 0 0 (   ",
"    s.f.s.O.o.] 0 0 q q e ^ ^ / / w * # * 8 8 9 9 8 e u 0 8 * * * 9 e e 0 ^ ^ ^ e e 9 8 $ $ $ 8 8 q ^ ` [ ` e q q /     ",
"      K.f.+.+.O.'  .' ' X.X.X.o.+.f.O.o.O.O.] ] ] W  .f.f.O.O.O.O.O.O.o.[ X.X.X.X.X.X. .[ ' ] X.O.@.o.X.] ^ e e ^ |     ",
"        K.s.s.+.X. .' ] ' X.X.X.O.+.+.f.f.f. .' [ ]  .O.@.O.+.f.+.O.+.O. .X. . .X.O.O.O.O.O.X. .O.O.X.' ` ^ e / '       ",
"          f.K.f.o. . .] '  .X.o.O.X.X.O.+.+.X.X.s.X.] ] ' X.f.f.+.X.O.O.X.X.X.X.X.X.o.O.+.f.@.X.X.o.X.' ] ( `           ",
"              f.+.O.+.o.' '  .o.X. .' ' X.X.O.f.f.X.] ] '  .O.o.X.X.O.X.o.o.O.o.O.O.O.O.O.@.X.X.X. . .[ '               "
};
