/* XPM */
static char *_e0d1f702dc4439bd024450c533f1878QSpSEhfPtV6gGVU2[] = {
/* columns rows colors chars-per-pixel */
"60 60 256 2 ",
"   c #7F4969",
".  c #945878",
"X  c #B7567B",
"o  c #A9577C",
"O  c #9A6C7D",
"+  c #A4737D",
"@  c #B5707C",
"#  c #C85775",
"$  c #C56C7D",
"%  c #E2847D",
"&  c #3D7291",
"*  c #7A6789",
"=  c #7E748D",
"-  c #796896",
";  c #797897",
":  c #6B7791",
">  c #787AA7",
",  c #7A69AD",
"<  c #5C7E97",
"1  c #9A5A83",
"2  c #8C5E88",
"3  c #A35A86",
"4  c #B85988",
"5  c #BA5B94",
"6  c #B44E8A",
"7  c #8A688A",
"8  c #9B648C",
"9  c #956589",
"0  c #89788A",
"q  c #9B778A",
"w  c #896997",
"e  c #996B97",
"r  c #887498",
"t  c #997799",
"y  c #A6658A",
"u  c #B7668B",
"i  c #A57589",
"p  c #BA758A",
"a  c #AC6D9B",
"s  c #A56A97",
"d  c #B86999",
"f  c #A9789A",
"g  c #B6779A",
"h  c #976DA5",
"j  c #8B7AA8",
"k  c #9879A7",
"l  c #9677B4",
"z  c #8773AF",
"x  c #A66CA4",
"c  c #A878A6",
"v  c #B779A6",
"b  c #B274AF",
"n  c #CC598D",
"m  c #E25C97",
"M  c #C56585",
"N  c #D3658B",
"B  c #C77788",
"V  c #D77A8B",
"C  c #C76996",
"Z  c #D76799",
"A  c #C8779A",
"S  c #D9799A",
"D  c #E4699A",
"F  c #E5739C",
"G  c #E4688D",
"H  c #CA6BA4",
"J  c #C878A8",
"K  c #D779A9",
"L  c #C579B4",
"P  c #DB79B4",
"I  c #DA6CA4",
"U  c #E269A1",
"Y  c #E579A7",
"T  c #E979B2",
"R  c #5E879C",
"E  c #66849A",
"W  c #78869A",
"Q  c #74878F",
"!  c #5891B0",
"~  c #7886A6",
"^  c #6C9AA8",
"/  c #7887B7",
"(  c #699BB9",
")  c #7393AD",
"_  c #79A3BB",
"`  c #75A6AD",
"'  c #51A1BA",
"]  c #529DC1",
"[  c #7394C4",
"{  c #51AAC4",
"}  c #68A9C8",
"|  c #77A8CA",
" . c #64ADD5",
".. c #75ACD4",
"X. c #7AB1D4",
"o. c #72B4D0",
"O. c #888399",
"+. c #958798",
"@. c #898C96",
"#. c #A88999",
"$. c #B5879B",
"%. c #B79594",
"&. c #B8888B",
"*. c #8887A8",
"=. c #9887A8",
"-. c #8897A9",
";. c #9796AA",
":. c #9889B5",
">. c #8A96B5",
",. c #9B96B7",
"<. c #8885B3",
"1. c #A687A8",
"2. c #B588A8",
"3. c #A596AB",
"4. c #B796AA",
"5. c #A988B4",
"6. c #B78AB6",
"7. c #A897B8",
"8. c #B59CBD",
"9. c #B796B8",
"0. c #88A6B7",
"q. c #99A6BD",
"w. c #96AFB2",
"e. c #A6AAB9",
"r. c #B8A6BB",
"t. c #BCA2AD",
"y. c #D9889A",
"u. c #D7959B",
"i. c #CE8A93",
"p. c #EC898B",
"a. c #E78897",
"s. c #F88B96",
"d. c #EB9598",
"f. c #F8959B",
"g. c #F08C8C",
"h. c #C984A8",
"j. c #D786AA",
"k. c #D997A7",
"l. c #C987B5",
"z. c #DB8CB4",
"x. c #D888B7",
"c. c #C696B7",
"v. c #D593B9",
"b. c #DC9ABC",
"n. c #D895B9",
"m. c #C49AA8",
"M. c #E787AB",
"N. c #F78AA9",
"B. c #E994A7",
"V. c #F995A4",
"C. c #E386B5",
"Z. c #E38CB3",
"A. c #EA8DB5",
"S. c #E38BBB",
"D. c #EB88B8",
"F. c #F388B7",
"G. c #E493B5",
"H. c #E494BB",
"J. c #EB94BC",
"K. c #E49BBC",
"L. c #EB9BBD",
"P. c #EC95B5",
"I. c #F494BB",
"U. c #F39BBD",
"Y. c #F99AB9",
"T. c #C3A6B9",
"R. c #C8BBBD",
"E. c #D6A6B4",
"W. c #E9A4BC",
"Q. c #F2ABB6",
"!. c #D5C4BC",
"~. c #969DC4",
"^. c #8D8FC3",
"/. c #A79BC4",
"(. c #B599C4",
"). c #B095CC",
"_. c #87A9C7",
"`. c #98ABC8",
"'. c #8CB4CB",
"]. c #98B5CD",
"[. c #86AAD3",
"{. c #89B7D4",
"}. c #97B7D6",
"|. c #9BABD5",
" X c #A8A6C8",
".X c #B7A6C7",
"XX c #A7B5CB",
"oX c #B9B4C6",
"OX c #BAA9D4",
"+X c #A7B9D5",
"@X c #B5B6D7",
"#X c #ABA9DB",
"$X c #ACBBE2",
"%X c #C797C3",
"&X c #D999C4",
"*X c #CD92C6",
"=X c #E58DC1",
"-X c #EB95C2",
";X c #E49BC2",
":X c #EC9DC2",
">X c #E698C8",
",X c #F29DC3",
"<X c #F39EC9",
"1X c #FA99C5",
"2X c #F38FCA",
"3X c #C9A8C8",
"4X c #D9A6C8",
"5X c #C7B4C8",
"6X c #D5B8C7",
"7X c #C8A9D3",
"8X c #D6A7D2",
"9X c #C9B9D7",
"0X c #D4B8D5",
"qX c #EEA2C5",
"wX c #EEA4C9",
"eX c #EEABCA",
"rX c #E6A8C7",
"tX c #F2A3C5",
"yX c #FBABC4",
"uX c #F3A5CA",
"iX c #F9A5CC",
"pX c #F3ABCC",
"aX c #FAACCD",
"sX c #FAA5C5",
"dX c #F3B1CF",
"fX c #FCB8C7",
"gX c #F5AED1",
"hX c #FAADD2",
"jX c #FAA8D4",
"kX c #ECB5D6",
"lX c #F5B3D1",
"zX c #F9B3D3",
"xX c #F6B9D6",
"cX c #FABBD5",
"vX c #FABCD9",
"bX c #F8B7DA",
"nX c #EAAFCD",
"mX c #FC95E1",
"MX c #F7B0E5",
"NX c #97C6D3",
"BX c #ABC3D8",
"VX c #B1CBD4",
"CX c #AAD8E8",
"ZX c #B5D9EA",
"AX c #B5D2EB",
"SX c #B3E0EC",
"DX c #9BC9E0",
"FX c #C8C6C8",
"GX c #D8C7C9",
"HX c #D5D1D2",
"JX c #F7C4CA",
"KX c #FAC5D9",
"LX c #E9CDD1",
"PX c #C5CFE9",
"IX c #F2D2E8",
"UX c #C8E4F1",
/* pixels */
"P mX1X<X1X2X2XmXmXMX*X6.9.2.9.9XAXAXBX9X4X4XT..XXX+XBX}.NXNXoX7.8.r.8.r..X.X XOXOXOX.X7X7X8X&X8X7XOX#X#X).).). Xe.r.7X(.",
"T K X X X 4 6 6 6 P v y i i i f r j 0 7 1 y 7 = : < E E R E +.1.2.4.2.2.#.7 7 7 7 e 9 8 a g a a s k :.z w - - ; * = 1.c ",
"Y Z X # # # n n n Y j.A i.u.y.y.4 K J A I K t *._ ( ( _ _ W r.xXdXfXfXcXG.u A A C A C C M.I.I.A.L.b.6.k k 5.5.5.1.#.v s ",
"I C N F G G D D n Z B V d.d.p.a.# N.N.Y F.C.k ~ [.} ..X._.~ 3XKXfXJXfXcXB.# M.F F Y F N N.sXsXsXyXL.c w =.(.).9.9.2.6.s ",
"L d 4 Z N m m n Z C M V d.g.p.p.# N.N.Y F.x.h ~ .. . .o.X.~ 5XKXKXJXfXcXB.X M.Y F Y Z M M.aXaXyXQ.W.1.r =.7.(.9.1.1.1.h ",
"b x 4 Z D D D Z C C M V p.p.g.p.# N.N.Y C.x.j / .. . .} | ~ 9XIXKXKXJXKXP.X Y Y D F F X A.aXuXW.Q.W.3.; =.7./.7.8.5.:.z ",
"x x d Y D D Z Z C C B V a.s.s.p.# N.N.M.D.*Xk / X. . .} X.) PXIXKXKXKXKXL.4 Y Y D U U X J.zXpXuXiXeX,.; <. X/./.8.,.^./ ",
"h c v P Y Y K K J g u A a.a.a.V $ P.L.z.x.*Xk <.[.X...X.{.) PXIXIXIXIXIX4Xy j.x.K K K 3 &XvXkXxXbXkX~.~ ,..X(.(..X,._.[ ",
"l l b v H K L b x 6.2.v h.j.h.A i #.2.2.l.6.5.:./.~.~.`._.) 0.BXBXBXBX@X X,.7.(.7.(.:.:. X@X@X@X7XOX+X_.7.9.c.9.9.e.| ] ",
"l l x 5 4 5 a x c (.k 2 9 y y 1 9 7 7 . 2 9 e e w w r k j ; : ; W ~ ~ *.*.*.*.:.<.:.<.j <.*.> j k 7.+X,.f p p p i +.| ' ",
"x v h.j.K S K l.v c 2   . . o o 1 8 8 8 s s 1 1 1 1 3 3 1 1 1 . 8 9 9 9 9 8 8 8 8 s s s a y 8 a a v 7.t p B V B B #.0.! ",
"d J Z.Y.Y.Y.<X:X&X2.8 s h.j.j.z.x.&X&X&X&Xv.l.h.z.j.K K K C.C.x.x.j.j.z.z.z.z.z.n.H.S.H.-XJ.S.S.-Xx.6.f y.V.V.f.f.u.;.E ",
"H H j.P.P.L.<XwX&Xv 2 c v.b.H.H.<XuX<X>X>X;XH.J.J.A.Z.A.J.-X;XH.H.H.H.H.H.;X:X:XqXuXuX:X<XiX<X-X-Xv.2.i V s.s.s.f.u.3.W ",
"H H j.L.P.K.:X>X&Xv s v v.&X:X-X<XuXiXjXhXiXuXiXuXL.L.,XtX:X;X:X:X<X<X:XL.:X:X:X:XiXhXiXuXiX<XJ.-Xn.2.i a.s.s.f.s.d.4.@.",
"H C C.yXW.W.<X>X=XJ s v v.;XuX<XtXL.L.:XgXgXhXbXzXpXqXqXtXtXtXuX:X,X,XL.L.tXuXuXuXaXzXaXtX:X:XH.,Xz.2.i y.f.f.f.f.d.4.0 ",
"H H J.hXyXyXjXjXwXv 3 2.&X;X<X,XW.L.K.tXbXvXbXbXlXdXeXpXaXaXuXtXqXtXtXL.L.tXtXtXaXtXuXuXuXtXtXtX,XH.2.f j.B.u.B.V.k.4.O.",
"H C 4 M M M 5 d s a 8 v b.b.-X:XtXtXtXuXaXlXlXgXpXlXlXdXdXzXaXuXqXqXqXqXqXqXuXuXaXuXtXuXiXuXtXtXK.rX6.e q 9 + + @ + @.Q ",
"v d 4 N N N Z H a c 1 g v.n.-X,XuXtXtXtXtXeXpXpXpXpXpXpXpXpXaXpXeXeXqXqXqXuXuXpXuXqXtXtXiXtX,X:XW.4X6.k 6.9.4.m.m.4.;.Q ",
"c a C Y S S Y P J v y d z.A.-X,XaXuXtXqX:X:XqXqXqXuXuXqXeXpXpXpXpXpXpXpXpXpXpXpXqXqX:XuXiXtX,X:X:X4X5.j OX0X5X6X4X3X7.; ",
"k s M Y S Y T Y L L 8 u z.A.,X<XhXaXpXqXK.H.L.qXtXtXtXqXqXpXdXdXaXdXaXpXpXpXpXpXtXqXtXuXiXuXtX<X,X>X).j OX7X3X5X3X3X7.= ",
"k s n T Y M.T Y J v 8 a z.J.uXpXzXaXtXK.G.G.J.,XtXuXuXtXqXpXdXlXlXlXlXpXpXdXdXaXpXpXuXtXuXuXtX,X1X>X(.<.OX9X.X5X7X7X9.w ",
"<.k d P j.j.C.x.v 2.9 f G.tXaXdXdXuXqXH.Z.Z.G.J.,XtXtXtXqXpXdXlXxXxXzXlXlXlXzXlXuXuXuXtXuXuXtX,X1X;X.X^.@XPX9X9X9X9X9.w ",
") <.k 2.1.3.6.5.=.5.t f K.tXdXxXlXpXqXH.Z.Z.A.P.U.,XtXtXqXeXlXlXxXvXvXxXzXlXlXpXpXaXuXuXuXuXtXtX1Xb.@X_ `.XXq.q.XX X,.r ",
"} | >.;.-.-.,.,.>.,.t g K.tXlXlXzXpXqXH.G.Z.A.A.U.,XtXtXeXpXlXxXxXvXvXvXzXlXpXeXpXaXaXaXpXpXuXtXY.b.+X^ E < E E ~ W *.; ",
"{ } }.SXZXSXZXAXBXq.t v ;XuXpXlXaXpXqXL.G.C.Z.A.,X,XtXqXpXdXxXvXvXvXxXxXlXlXpXpXpXaXaXpXpXpXuXtXY.4X].( _.'.'.].'._.>.> ",
"{ } {.CXDXCXSXSXCXq.7 v wXpXpXbXgXpXqXJ.Z.C.A.J.,X,XtXqXpXlXxXvXxXxXlXxXlXdXpXpXpXaXpXpXuXaXuX,XsX4X`.( _.}.'.| {.[.[ E ",
"] } NXSXZXSXCXCXDX`.k v rXgXgXlXgXtXL.G.Z.Z.J.,XL.,XqXqXpXlXxXvXlXlXpXeXpXpXaXaXpXpXpXuXuXaXuX:X:X4X|.( [.}.{.'.{.[.| ! ",
"{ } }.ZXVXVXCXCXDXBX5.v b.eXlXdXaXqXK.H.H.L.,XuX:XqXqXqXeXlXxXxXxXdXeXeXeXpXaXlXaXpXuXpXuXpXtX:X;X8X#X[ [.}.}.'.[.[.| ! ",
"{ o.NXUXUXUXUXSXZXAX=.f 4XeXdXlXpX:XK.K.qXuXuXpXtXtXeXeXdXxXxXxXlXdXeXeXeXpXaXlXaXaXaXuXuXtXtXqXrX7X#X^.|.$X+X].}.}...! ",
"{ ( q.oXoXoXoX@Xq.+X=.f K.pXlXeXqXL.K.qXpXzXhXaXpXpXpXlXlXvXvXxXlXlXpXeXpXaXlXlXaXaXaXpXtXqXtXqXK.4X.X:././.7.7.,.~.| ! ",
"} ) 7 o . o 1 e w .X1.f G.sXlXK.qXL.:XuXzXzXzXlXdXlXxXlXxXvXvXxXlXlXdXpXdXlXlXlXaXpXuXtXtXtX:X,XU.L.&Xb v v f g v 1.*.: ",
"_ >.g K Y M.K x.c 7X1.g L.U.tXK.:X:XtXuXzXlXlXlXdXdXxXxXvXvXvXlXlXlXlXlXlXlXlXlXaXpXqXqXtXtXqXU.Y.F.x.L -X<XU.U.qX&X7.; ",
"_ -.s M.Y Y K J c .Xc c K.L.K.L.:XtXuXuXaXzXlXdXeXdXxXxXvXKXKXvXxXlXdXdXdXlXdXpXzXuXqXuXiXuX:XU.Y.A.x.J S.1XY.U.qX4X6.7 ",
"0.;.f Z.Y T Y j.f (.k x b.:XL.tXtXtXuXuXpXaXdXpXeXdXxXxXvXKXKXvXlXlXdXdXdXlXdXpXpXqXqXuXaXuX,XJ.A.z.x.v S.1XY.Y.L.rXc.8 ",
") =.g P.M.M.Y j.2.(.k e v.qXqXtXtXuXuXuXuXpXpXeXeXdXxXxXvXKXvXxXdXdXlXdXdXlXdXpXqXqXqXuXiXiX<XJ.j.h.6.b S.1XY.Y.U.uX&Xv ",
"W O.g P.A.A.M.k.2.T.c a v.L.tXqXtXtXtXtXtXuXpXeXeXdXlXxXvXvXxXxXdXdXlXpXdXlXdXpXqXuXuXuXuXiX<XJ.j.h.6.1.>XbXaXyXiXjX>Xv ",
"*.+.A y.S S y.i.$.9.c x n.L.tXtXtXtXtXqXqXtXpXeXpXdXlXlXzXxXlXdXdXlXdXpXdXlXdXpXwXpXuXtXuXaXuX:XA.l.6.t J j.y.y.j.K l.v ",
"*.1.j.B.j.k.u.k.4.T.c v b.:XqXqXtXtX:XL.:XtXuXtXpXpXpXpXdXlXlXdXpXlXlXpXdXlXaXpXuXuXtXtXuXiXiX,XA.x.6.w 3 u X M M u c 1.",
"r 1.W.yXfXfXfXJXR.T.c v K.:XwXqXqX:XL.L.L.qXtXtXtXuXtXeXpXpXlXlXdXlXlXdXdXdXaXpXpXqXtXuXiXiXuX<X1XS.6.e v j.y.B.A.K c r ",
"O.1.rXyXyXfXQ.Q.6XT.f v K.:XwXwXqXtXL.L.L.:XtXqXqXqXqXqXqXaXzXlXdXlXlXdXdXdXaXpXpXuXtXuXiXuX,X1X1XC.b w J A.M.M.F.K k - ",
"*.1.eXfXfXfXfXQ.R.T.#.v b.qX;XwXqXqX:X:X:XuXtX:X:X:X:XqXuXpXgXlXdXlXaXaXpXpXpXpXaXpXuXuXuX<X:XJ.F.=Xb e x.D.M.N.F.S.1.* ",
"O.1.eXfXfXfXJXJXGXR.t f b.uXpXpXwXuXqXqXtXuXtX<X:X:X:XqXuXpXhXhXaXpXpXpXgXpXpXpXpXuXiXuX<X,XJ.D.F.S.c w x.J.Z.M.F.S.5.* ",
"*.8.lXcXKXcXfXJX6X5X1.f b.tXqX:XpXpXpXuXtXtXtX<X:X:X:XtXuXpXhXhXpXpXpXgXgXgXaXpXuXiXiXuX,XJ.S.C.D.z.5.h *X>XL.L.2X>X5.* ",
"*.+.p u B p p &.#.3.k c v.qXuXpXpXgXhXpXuXtX<X<X<X,X:X<XuXuXpXpXuXeXpXaXlXlXpXpXuXuXiXuX,XJ.C.C.C.x.5.w x g a g d x h - ",
">.=.y M C A B $.+.3.k c v.L.,XuXuXgXlXpXuXtX<X,X<X,X:X:XtXuXwXwXwXeXpXpXhXgXpXuX:XwXuX<X-XS.C.C.C.x.5.- w e q q e e r - ",
"*.=.h.I.1XI.I.K.4.8.k c v.H.P.J.wXpXgXaXuXtX<X,X,X,X:X:X:XtXqXqXuXpXpXpXpXpXuXuX:XuXuX<X,XJ.A.D.D.z.6.h 5.8.9.9.(.:.j - ",
"*.=.A I.F.F.A.H.9.7.k x v.J.I.,XqXeXgXaXuXuX<X:X,X:X:X:X<XtXqXqXpXpXgXaXpXwXwXwXuXuXuX<X,X-XJ.A.F.C.%Xh 5.(.7.3.,.=.l h ",
"*.k g 1XI.I.1XH.c.(.k c n.J.J.,XqXeXpXpXpXuXuX<X,XL.:X,X,XuXuXwXpXgXhXgXuXtXqXqXqXqX<X,X-X-XD.D.F.C.%Xk =.7.7.7.,.<.l h ",
":.k h.tXL.tXuXwX&X9.c f n.L.K.tXtXuXeXdXpXiXuXiX,X1X,XJ.jX<XuXwXwXuXgXaX<X1X,XuXwXwXH.H.S.=X2X2XF.-X7X<.:.8.8.8.7.,.^.z ",
"> :.%XdXrXnXnX8X%X5.k f v.n.b.b.rXrX6X6X4XrX4X4Xb.;XwX;XuX;X4X8X4X4X4X4X;X,XU.,X:X;Xn.n.v.v.x.=X-Xv.XX-.,..X3X.X Xq.^., ",
"/ ^.7.9.7.8.8.(.). X X3.c.c.T.T.r.oXBXNXBX+XXXoX9.9.9.9.%X9. XXXBXXXXXoX3X;X:XJ.J.z.x.l.9.5.1.5.1.3.DXNXe.e.r.3.;.;.>.> ",
"[ / - * * r w w - <.,.0 9 O i O +.@.` ^ ` ` -.-.=.t t t 1.=.~ ) ^ ^ ^ -.r 8 u 4 5 4 3 1 7 = = r * W NX0.@.q q q 0 O.<.> ",
"^.z w e e x e h w k 1.i p B B p i +.w.w.w.w.e.3.c.v.b.;XrX%X*.) _ 0.0.>.r 9 d 4 4 4 5 3 c 9.9.9.4.=.0.-.q p A B i.g 1.w ",
"l l x 6.2.v b 6.x x g B B.s.p.d.B %.R.VXFXVXFX4.n.uXhXhXbX&X*.`.].}.}.XX=.s J I Z Z I 4 c.8X8X8X0Xr.XX;.i.V.V.f.f.y.2.w ",
"l h s v g v v b s g p @ d.p.% g.B &.R.FXFXFXGX$.n.iXjXiXgX%X*.+X`.].'.`.=.s K I U m U 4 v.3X%X3X3X7.e.=.y.V.s.g.s.y.2.r ",
"6.s a J g v v a s v.y.$ d.g.% g.i.&.!.FX!.R.GX$.k.aXuXwXbX3X; ].].].'.`.=.a P U m m Z 4 &X8X3X3X7X.Xe.t S V.V.f.s.i.3.: ",
"v g u K J A v v a ;XS V f.g.p.d.i.&.!.!.!.!.LX%.u.fXW.eXxXc.O.XX].'.].XX=.a x.Y D m D 4 4X0X5X5X7X.X7.1.Z.N.V.V.d.u.;.E ",
"H A d K A H v v d z.S V V.f.V.B.i.%.HXHXHXGXLXm.k.cXnXkXvX3X=.XX+X+XXXXX1.v x.Y U Z Y d 4X0X9X9X9XOX7.5.K.Y.Q.Q.Q.E.q.R ",
"K K J z.P x.l.l.L =XK M.Y.P.P.W.t.e.VXVXFX5X0X9.c.nX4X8X8X7X,. X/./.7.(.6.h.x.j.K K Y A v.3X3X.X.X/.>.=.c.n.E.k.E.t.0.R ",
"5 H C H C H L L L L C S j.A A $.3.0.0.-.;.=.1.k e x h h x l z j j =.1.9.c.h.J A A C A d a f t r ; > ~ ; t q i i i 0 E & "
};
