/* XPM */
static char *result[] = {
/* columns rows colors chars-per-pixel */
"64 62 12 1 ",
"  c #cc3300",
". c #A27C17",
"X c #ff9900",
"o c #D0A93E",
"O c #cc3300",
"+ c #cc3300",
"@ c #D9B962",
"# c #DCBE6E",
"$ c #DFC47A",
"% c #E2C986",
"& c #E5CE92",
"* c None",
/* pixels */
"****************************************************************",
"****************************************************************",
"****************************************************************",
"****************************************************************",
"****************************************************************",
"****************************************************************",
"****************************************************************",
"****************************************************************",
"****************************************************************",
"****************************************************************",
"****************************************************************",
"****************************************************************",
"****************************************************************",
"****************************************************************",
"****************************************************************",
"****************************************************************",
"***************************         ****************************",
"***************************         ****************************",
"***********************    XXXXXXOOO    ************************",
"***********************    XXXXXXOOO    ************************",
"*********************  XXXXXXXXXXXXX++++  **********************",
"******************** XXXXXX         XXoo++  ********************",
"******************** XXXXXX         XXoo++  ********************",
"******************  XXXXX  XXXXXXOOO  ++XX++  ******************",
"******************  XXXXX  XXXXXXOOO  ++XX++  ******************",
"******************  XXX  XXXXXXXXXXX++  OO++  ******************",
"******************  XXX  XXXXXXXXXXX++  OO++  ******************",
"****************  XXX  XXXXXXXXXXXXXXX++  oo##  ****************",
"****************  XXX  XXXXXXXXXXXXXXX++  oo##  ****************",
"****************  XXX  XXXXXXXXXXXXXXX++  OO$$  ****************",
"****************  XXX  XXXXXXXXXXXXXXX++  OO$$  ****************",
"****************  XXX  XXXXXXXXXXXXXXX++  ++%%  ****************",
"****************  XXX  XXXXXXXXXXXXXXX++  ++%%  ****************",
"****************  XXX  XXXXXXXXXXXXXXX++  ++&&  ****************",
"****************  XXX  XXXXXXXXXXXXXXX++  ++&&  ****************",
"****************  XXX  XXXXXXXXXXXXXXX@@  OO&&  ****************",
"******************  XXX  XXXXXXXXXXX@@  OO@@  ******************",
"******************  XXX  XXXXXXXXXXX@@  OO@@  ******************",
"******************  XXXXX  XXXXXXXX@..oooo##  ******************",
"******************  XXXXX  XXXXXXXX@..oooo##  ******************",
"******************** XXXXXX         oooo@@  ********************",
"******************** XXXXXX         oooo@@  ********************",
"*********************  XXXXXXXXXXXXO++$$  **********************",
"*********************  XXXXXXXXXXXXO++$$  **********************",
"***********************    XXXXXX@@@    ************************",
"***********************    XXXXXX@@@    ************************",
"***************************         ****************************",
"***************************         ****************************",
"****************************************************************",
"****************************************************************",
"****************************************************************",
"****************************************************************",
"****************************************************************",
"****************************************************************",
"****************************************************************",
"****************************************************************",
"****************************************************************",
"****************************************************************",
"****************************************************************",
"****************************************************************",
"****************************************************************",
"****************************************************************",
"****************************************************************",
"****************************************************************"
};