/* XPM */
static char *_d993e2a135d4ad5db796511c7a73559QSDRDp6PPgkMrTZo[] = {
/* columns rows colors chars-per-pixel */
"60 60 251 2 ",
"   c #331C1B",
".  c #302F1D",
"X  c #110735",
"o  c #301532",
"O  c #36163B",
"+  c #342F34",
"@  c #731319",
"#  c #533615",
"$  c #732F16",
"%  c #471C35",
"&  c #472839",
"*  c #533232",
"=  c #6F3033",
"-  c #2D441D",
";  c #205B1F",
":  c #254724",
">  c #27572B",
",  c #35542D",
"<  c #3A4637",
"1  c #2D6626",
"2  c #316C2C",
"3  c #3A6936",
"4  c #377A37",
"5  c #6D4618",
"6  c #635D1E",
"7  c #4B5233",
"8  c #73522C",
"9  c #486B37",
"0  c #4B7435",
"q  c #6C6D33",
"w  c #1D1959",
"e  c #3D1643",
"r  c #3D1C43",
"t  c #322A4C",
"y  c #18166E",
"u  c #2D2A6F",
"i  c #431D49",
"p  c #491F50",
"a  c #6F164B",
"s  c #47264A",
"d  c #45234C",
"f  c #503347",
"g  c #4C2952",
"h  c #532A58",
"j  c #56335B",
"k  c #633656",
"l  c #5A2A64",
"z  c #5A3863",
"x  c #653C6A",
"c  c #743972",
"v  c #39536A",
"b  c #524D4F",
"n  c #6D5453",
"m  c #50674C",
"M  c #477A43",
"N  c #786C48",
"B  c #485177",
"V  c #6B4A73",
"C  c #507774",
"Z  c #686B73",
"A  c #B1110D",
"S  c #B9181A",
"D  c #912718",
"F  c #B5231E",
"G  c #A02424",
"H  c #C4191D",
"J  c #D5141A",
"K  c #C7231E",
"L  c #C31D21",
"P  c #CE2B29",
"I  c #D63829",
"U  c #915218",
"Y  c #926519",
"T  c #AE701A",
"R  c #92562D",
"E  c #AD5122",
"W  c #8E692D",
"Q  c #AB702B",
"!  c #CB512D",
"~  c #E14837",
"^  c #D56926",
"/  c #D37528",
"(  c #E97321",
")  c #EA7822",
"_  c #B13760",
"`  c #8C7153",
"'  c #A0675B",
"]  c #825076",
"[  c #D44D4D",
"{  c #E16A59",
"}  c #D47471",
"|  c #368926",
" . c #39843B",
".. c #42913A",
"X. c #6B9232",
"o. c #64AB2E",
"O. c #2EE91A",
"+. c #3CEB25",
"@. c #7CCF1E",
"#. c #4FEC35",
"$. c #3B8E43",
"%. c #448745",
"&. c #499948",
"*. c #549852",
"=. c #4DA44A",
"-. c #52A94B",
";. c #56B14A",
":. c #54AB54",
">. c #5BB657",
",. c #72AD51",
"<. c #65BA5C",
"1. c #5A8A6D",
"2. c #75906B",
"3. c #6BAC70",
"4. c #69E550",
"5. c #76C665",
"6. c #7FCF70",
"7. c #AD8F17",
"8. c #B5922C",
"9. c #9AA42C",
"0. c #D68D1B",
"q. c #F4891E",
"w. c #E9971C",
"e. c #F6971D",
"r. c #CEB20D",
"t. c #ECA31C",
"y. c #F8A719",
"u. c #FCB717",
"i. c #D49033",
"p. c #F08B23",
"a. c #D3B334",
"s. c #F8B229",
"d. c #91D529",
"f. c #A1C42F",
"g. c #8CE330",
"h. c #DAC414",
"j. c #F9CE0C",
"k. c #FBC715",
"l. c #FCD917",
"z. c #FCCA24",
"x. c #FDD727",
"c. c #FCCC3B",
"v. c #F9D636",
"b. c #D4FA2F",
"n. c #B3875B",
"m. c #A89D5F",
"M. c #AF9469",
"N. c #D99349",
"B. c #CDAE48",
"V. c #DFA460",
"C. c #93DB57",
"Z. c #B0D04D",
"A. c #91E749",
"S. c #8DD371",
"D. c #ADD76D",
"F. c #ABE870",
"G. c #F7D24F",
"H. c #DAF64E",
"J. c #E4EC54",
"K. c #D6CD6F",
"L. c #FDD670",
"P. c #F2ED71",
"I. c #161E93",
"U. c #2C3191",
"Y. c #1C2CB1",
"T. c #2A38AE",
"R. c #433BA4",
"E. c #394697",
"W. c #3C48A9",
"Q. c #3546B8",
"!. c #605B97",
"~. c #484FB0",
"^. c #1630C6",
"/. c #263AC2",
"(. c #364DD4",
"). c #1B44E9",
"_. c #3053E5",
"`. c #3A66E9",
"'. c #4C5CC8",
"]. c #5467D1",
"[. c #4F6EEE",
"{. c #6074E0",
"}. c #913695",
"|. c #C22899",
" X c #D318AF",
".X c #D31CB0",
"XX c #C535A3",
"oX c #D526B4",
"OX c #D836B9",
"+X c #915688",
"@X c #AD5597",
"#X c #B166A0",
"$X c #C35D94",
"%X c #CC4DAE",
"&X c #DB43BE",
"*X c #D474AE",
"=X c #A45BCB",
"-X c #DD4CC1",
";X c #DE53C4",
":X c #DF59C5",
">X c #E05DC7",
",X c #E05EC8",
"<X c #DA70C7",
"1X c #E164C9",
"2X c #E36BCC",
"3X c #E473CF",
"4X c #E37FCE",
"5X c #E576D0",
"6X c #E67CD2",
"7X c #6AA5A6",
"8X c #6B8AD2",
"9X c #6B84FC",
"0X c #758DF2",
"qX c #7289FD",
"wX c #7AC0C4",
"eX c #AE9395",
"rX c #ADA7AA",
"tX c #DC918C",
"yX c #E7B095",
"uX c #D09CA1",
"iX c #E6B0B1",
"pX c #A3DD8F",
"aX c #B9EA85",
"sX c #FCDA88",
"dX c #F6EB8F",
"fX c #CFCAB5",
"gX c #FEEFAB",
"hX c #CD91D4",
"jX c #E28DCB",
"kX c #E782D4",
"lX c #E88AD6",
"zX c #E98BD7",
"xX c #EA93DA",
"cX c #EC9BDC",
"vX c #C4B6C7",
"bX c #EAA6DC",
"nX c #EEA9E2",
"mX c #F0B2E4",
"MX c #D4CAD6",
"NX c #ECD7D0",
"BX c #DEF4C7",
"VX c #EFECD7",
"CX c #FEF8D4",
"ZX c #F4CAEB",
"AX c #F7D8F2",
"SX c #F6F0E6",
"DX c #FCF9EC",
"FX c #F9EAF6",
"GX c #FCF5F7",
"HX c #FEFCFE",
"JX c white",
/* pixels */
"JXJXJXJXJXJXJXJXJXJXJXJXJXJXJXJXJXJXJXJXJXJXJXJXJXJXJXJXJXJXJXJXJXJXJXJXJXJXJXJXJXJXJXJXJXJXJXJXJXJXJXJXJXJXJXJXJXJXJXJX",
"JXJXJXJXJXJXJXJXJXJXJXJXJXJXJXJXJXJXJXJXJXJXJXJXJXJXJXJXJXJXJXJXJXJXJXJXJXJXJXJXJXJXJXJXJXJXJXJXJXJXJXJXJXJXJXJXJXJXJXJX",
"JXJXJXJXJXJXJXJXJXJXJXJXJXJXJXJXJXJXJXJXJXJXJXJXJXJXJXJXJXJXJXJXJXJXJXJXJXJXJXJXJXJXJXJXJXJXJXJXJXJXJXJXJXJXJXJXJXJXJXJX",
"JXJXJXJXJXJXJXJXJXJXJXJXJXJXJXJXJXJXJXJXJXJXJXJXJXJXJXJXJXJXJXJXJXJXJXJXJXJXJXJXJXJXJXJXJXJXJXJXJXJXJXJXJXJXJXJXJXJXJXJX",
"JXJXJXJXJXJXJXJXJXJXJXJXJXJXJXJXJXJXJXJXJXJXJXJXJXJXJXJXJXJXJXJXJXJXJXJXJXJXJXJXJXJXJXJXJXJXJXJXJXJXJXJXJXJXJXJXJXJXJXJX",
"JXJXJXJXJXJXJXJXJXJXJXJXJXJXJXJXJXJXJXJXJXJXJXJXJXJXJXJXJXJXJXJXJXJXJXJXJXJXJXJXJXJXJXJXJXJXJXJXJXJXJXJXJXJXJXJXJXJXJXJX",
"JXJXJXJXJXJXJXJXJXJXJXJXJXJXJXJXJXJXJXJXJXJXJXJXJXJXJXJXJXJXJXJXJXJXJXJXJXJXJXJXJXJXJXJXJXJXJXJXJXJXJXJXJXJXJXJXJXJXJXJX",
"JXJXJXJXJXJXJXJXJXJXJXJXJXJXJXJXJXJXJXJXJXJXJXJXJXJXJXJXJXJXJXJXJXJXJXJXJXJXJXJXJXJXJXJXJXJXJXJXJXJXJXJXJXJXJXJXJXJXJXJX",
"JXJXJXJXJXJXJXJXJXJXJXJXJXJXJXJXJXJXJXJXJXJXJXJXJXJXJXJXJXJXJXJXJXJXJXJXJXJXJXJXJXJXJXJXJXJXJXJXJXJXJXJXJXJXJXJXJXJXJXJX",
"JXJXJXJXJXJXJXJXJXJXJXJXJXJXJXJXJXJXJXJXJXJXJXJXJXJXJXJXJXJXJXJXJXJXJXJXJXJXJXJXJXJXJXJXJXJXJXJXJXJXJXJXJXJXJXJXJXJXJXJX",
"JXJXJXJXJXJXJXJXJXJXJXJXJXJXJXJXJXJXJXJXJXJXJXJXJXJXJXJXJXJXJXJXJXJXJXJXJXJXJXJXJXJXJXJXJXJXJXJXJXJXJXJXJXJXJXJXJXJXJXJX",
"JXJXJXJXJXJXJXJXJXJXJXJXJXJXJXJXJXJXJXJXJXJXGXAXZXnXcXzXzXzXzXzX6XzXmXAXJXJXJXJXJXJXJXJXJXJXJXJXJXJXJXJXJXJXJXJXJXJXJXJX",
"JXJXJXJXJXJXJXJXJXJXJXJXJXJXJXJXJXJXJXJXAXxX;XOX;X>X>X>X>X>X>X;X.X XoX>XkXnXAXJXJXJXJXJXJXJXJXJXJXJXJXJXJXJXJXJXJXJXJXJX",
"JXJXJXJXJXJXJXJXJXJXJXJXJXJXJXJXJXJXAXxX2XoX X.X;X1X1X1X1X1X1X;X.X.XOX>X;X;X1XxXAXJXJXJXJXJXJXJXJXJXJXJXJXJXJXJXJXJXJXJX",
"JXJXJXJXJXJXJXJXJXJXJXJXJXJXJXJXFXcX1X>X1X-X.X.X-X2X2X2X2X2X2X-X.X.X;X1X1X>X:X;X,XcXFXJXJXJXJXJXJXJXJXJXJXJXJXJXJXJXJXJX",
"JXJXJXJXJXJXJXJXJXJXJXJXJXJXJXZX3X>X1X1X2X1XoX X-X3X3X3X3X3X3X&X XOX2X2X1X1X1X>X;X;X1XmXJXJXJXJXJXJXJXJXJXJXJXJXJXJXJXJX",
"JXJXJXJXJXJXJXJXJXJXJXJXJXGXcX1X1X1X2X2X3X3X&X X&X6X6X6X6X6X6XOX.X;X3X3X2X2X1X1X>X;XoXoXzXGXJXJXJXJXJXJXJXJXJXJXJXJXJXJX",
"JXJXJXJXJXJXJXJXJXJXJXJXFX2XOX,X2X2X3X3X5X6X1X.XOX6XkXkXkXkX6XOXoX3X6X5X3X2X2X2X1XOX.X.X.X6XGXJXJXJXJXJXJXJXJXJXJXJXJXJX",
"JXJXJXJXJXJXJXJXJXJXJXFX1X X.X&X2X3X5X6X6X6X6XOXoXkXzXzXzXzX6XoX-XkX6X6X6X3X3X2X&X.X.X.XOX-XzXGXJXJXJXJXJXJXJXJXJXJXJXJX",
"JXJXJXJXJXJXJXJXJXJXJXcXOX.X.X.X;X5X*XtXtXyXyX*X%X4XxXxXxXxX6XoX3XzXzXkX6X6X6X:XoX XoX&X:X;X-XxXJXJXJXJXJXJXJXJXJXJXJXJX",
"JXJXJXJXJXJXJXJXJXJXmX1X1X-XoX.XXXV.G.G.v.x.x.v.G.yXjXxXcXcX3X&XxXzXzXzXkXkX2XoX XoX;X1X>X:X;X;XmXJXJXJXJXJXJXJXJXJXJXJX",
"JXJXJXJXJXJXJXJXJXAX2X1X2X3X,XXXi.J.C.G.k.k.k.j.k.P.P.iXcXbX2X2XcXxXxXxXzX6XOX XOX2X2X2X1X>X;X-X:XAXJXJXJXJXJXJXJXJXJXJX",
"JXJXJXJXJXJXJXJXGXkX>X1X2X5X*Xi.J.#.O.C.v.z.z.z.G.J.b.J.iXnX5XxXbXcXcXxXzX-XoX;X6X5X3X2X1X1X:X;X-XzXJXJXJXJXJXJXJXJXJXJX",
"JXJXJXJXJXJXJXJXmX,X1X2X3X<Xn.v.A.O.+.4.J.c.c.c.P.H.b.b.K.bXcXnXnXnXcXcX1XoX2XzXkX6X3X2X2X1X,X>X;X3XAXJXJXJXJXJXJXJXJXJX",
"JXJXJXJXJXJXJXFX5X>X2X2X5X$Xa.J.+.O.#.4.F.G.G.L.P.H.H.b.H.iXnXbXbXhX#X@X}.@XjXjXkX6X6X3X2X>X%X%X@X+XM.GXJXJXJXJXJXJXJXJX",
"JXJXJXJXJXJXJXnX:X1X2X3X3X' v.A.O.+.#.4.S.dXsXdXP.J.H.b.b.yX#X] Z m M M M 9 m ] *X6X6X5X$X' ` m.,.X.X.fXJXJXJXJXJXJXJXJX",
"JXJXJXJXJXJXGX;XoXOX:X2X<XQ v.A.+.#.4.4.pXCXCXCXdXP.H.H.b.K.m M &.-.-.=.&. .4 2 b +X<X*XW 8.B.D.D.,.@.aXJXJXJXJXJXJXJXJX",
"JXJXJXJXJXJXZXoX X X.XOX%XQ x.rX7X7XwXwXMXCXCXCXyXV.V.V.V.K.*.&.:.:.>.<.>.&. .2 > < ] ' / i.B.Z.Z.F.F.F.SXJXJXJXJXJXJXJX",
"JXJXJXJXJXJXcXoXoX.X.X X|.Q x.8X).`.[.9X0XVXCXNX{ I P L S n.<.>.5.5.=.$. .&.;.&.2 > . 8 i.N.B.Z.Z.aXaXaXBXJXJXJXJXJXJXJX",
"JXJXJXJXJXJXjX;X;X;X}.XXOXR l.rX)._.`.[.0XhXhX*X[ P L S F m.<.6.:.5.S.5.-.4  .;.=. .: # Q N.B.f.Z.F.F.F.aXJXJXJXJXJXJXJX",
"JXJXJXJXJXFX*X+X+X@Xk +X+X8 a.K._.).Q.W.=X=X=X=X[ P L A ! ,.:.S.=.:.S.5.<.=.4  .=.=. .: 8 i.a.f.d.A.A.A.C.DXJXJXJXJXJXJX",
"JXJXJXJXJXNX] j t s b 0 3 , 7.B.!.^.v M V }.c }.$XP S F M.=.<.S.:.$.<.5.5.-.2 >  .-.=.> 7 8.f.f.d.g.g.g.g.VXJXJXJXJXJXJX",
"JXJXJXJXJXMXd r l j 7 1 1 3 7 W * v 3 1 9 < 1 l }.[ S } ,.&.5.S.5.$. .>.<.;. .> 4 ;.=.3 - 9.9.d.@.d.g.g.g.BXJXJXJXJXJXJX",
"JXJXJXJXJXMXx % x g 7 2 1 4 , # * 9 1 1 4 | 1 < j ' N.,.3.C 1.7XS.-.2 %.>.;...: 2 ;.;.3 - X.@.C.Z.f.@.@.o.fXJXJXJXJXJXJX",
"JXJXJXJXJXvXj & & i + > < < , + r 7 1 2 1 < + , 3 n m E.W.W.w t 1.3.4 1  .;...> : %.>.M , o.C.D.D.B.8.X.6 fXJXJXJXJXJXJX",
"JXJXJXJXJXvXd r r h V g s O + i x f 7 2 < g r r f 3 t Y.T.~.u X E.8X*.> >  .;...> %.>.%.7 S.F.Z.Z.B.i.Q W fXJXJXJXJXJXJX",
"JXJXJXJXJXvXi r O d z s O O O p x d r d g r i h !.z y (.Q.T.I.U.{.{.7X..: > =.-.3 %.<.3 0 aXaXZ.Z.B.N./ W NXJXJXJXJXJXJX",
"JXJXJXJXJXvXd j V d O o O d d i * & h V V O O d j u I.Y.~.~.~.[.qX[.'.-.2 : 4 -.3 M :., ,.S.7XZ 2.M.N./ W NXJXJXJXJXJXJX",
"JXJXJXJXJXMXs d z d h j i c +Xz & & r g d O O d z t w t 7 9 b !.0X9X].3.1.m M :.%.<.%.0 1.E.~.U.X t eXQ W SXJXJXJXJXJXJX",
"JXJXJXJXJXFXb O O O d j h c !.j i O O r r p V j s * 7 9 0 0 9 7 B '.Q.~.u t B 3.C C v C U./.R.R.y w {.!.M.GXJXJXJXJXJXJX",
"JXJXJXJXJXJXZ i z g r g g l d h p i j V g i g s * q q N 9 9 9 9 < I.T.~.U.X u {.W.I.Y.T.Q.].~.T.U.].9X].rXJXJXJXJXJXJXJX",
"JXJXJXJXJXJXeXO g s j x x c j g i r d j r o O g j f n * 7 7 3 3 , u U.U.I.I.'.9X(.(.(.W.~.U.].[.[.].Z b rXJXJXJXJXJXJXJX",
"JXJXJXJXJXJXMX&     % s & n @Xc d O O O e z j g g * ` W Y Y q 9 < & m E.].[.qX9X(.(.'.T.R.X U./.(.B r.t.VXJXJXJXJXJXJXJX",
"JXJXJXJXJXJXGXn . :     : f @Xk d g V O d z h o 8 i.s.u.u.u.y.0.5 6 + U.Q.[.qXqX_.T.[.Q.I.X u /./.7 j.G.JXJXJXJXJXJXJXJX",
"JXJXJXJXJXJXJXyXF $ ; : . % * . g h V o o o o W s.u.u.k.u.u.u.w.8.W o + 8 B ].[.(.T.(.[.'.~.].T.u 7.k.gXJXJXJXJXJXJXJXJX",
"JXJXJXJXJXJXJXSX[ G - : : . - $ = h d r h f Y s.u.k.k.c.G.z.u.w.Q 0.U U y.9.u T.(.(.`.9XqXqX'.b B.k.G.DXJXJXJXJXJXJXJXJX",
"JXJXJXJXJXJXJXJXiXP S S $ ; : D I _ = d s 8 t.u.u.k.z.L.sXG.u.u.t.t.w.Y 0.G.m.b U.^._.qX9X'.b B.P.L.gXJXJXJXJXJXJXJXJXJX",
"JXJXJXJXJXJXJXJXGX} I I P G D F [ } ! D % T y.y.u.u.c.L.sXG.s.y.y.y.y.T T y.v.h.6 t U.W.B q a.G.G.dXDXJXJXJXJXJXJXJXJXJX",
"JXJXJXJXJXJXJXJXJXNXI P I J J H P { { K $ 0.y.y.y.u.c.L.G.s.y.y.y.y.e.0.Y w.u.l.l.r.7.7.r.j.l.x.P.CXJXJXJXJXJXJXJXJXJXJX",
"JXJXJXJXJXJXJXJXJXJXtXJ J S H H H ~ ~ H D w.y.y.y.y.s.s.s.e.e.e.e.e.e.p.Y B.s.u.k.x.x.l.l.k.j.x.gXJXJXJXJXJXJXJXJXJXJXJX",
"JXJXJXJXJXJXJXJXJXJXGX} A A S S S I ~ H D 0.y.e.e.e.e.e.e.e.e.q.e.e.q.) U a.L.v.j.k.k.k.k.j.l.dXJXJXJXJXJXJXJXJXJXJXJXJX",
"JXJXJXJXJXJXJXJXJXJXJXDX} S K S S P ~ H $ 0.e.e.e.e.e.e.e.q.q.q.q.q.q.( U 0.u.x.l.l.l.l.l.x.P.DXJXJXJXJXJXJXJXJXJXJXJXJX",
"JXJXJXJXJXJXJXJXJXJXJXJXSX} F S H P I K @ T w.e.q.q.q.q.q.q.q.q.) ) ( ^ U 0.y.s.z.z.x.x.z.L.DXJXJXJXJXJXJXJXJXJXJXJXJXJX",
"JXJXJXJXJXJXJXJXJXJXJXJXJXGXtXL H L I K @ = / p.q.q.q.q.q.q.) ) ( ( ^ E # T u.G.P.G.j.l.sXGXJXJXJXJXJXJXJXJXJXJXJXJXJXJX",
"JXJXJXJXJXJXJXJXJXJXJXJXJXJXJXiX[ H P K @ a R / ) ) q.q.) ) ) ( ( ^ ! = c R y.u.z.x.G.gXJXJXJXJXJXJXJXJXJXJXJXJXJXJXJXJX",
"JXJXJXJXJXJXJXJXJXJXJXJXJXJXJXJXNX} P S @ * # U ^ ( ( ) ) ) / ^ ^ ! $ * = # 7.y.s.L.DXJXJXJXJXJXJXJXJXJXJXJXJXJXJXJXJXJX",
"JXJXJXJXJXJXJXJXJXJXJXJXJXJXJXJXJXJXNX} = 5 5 # 5 E ^ ^ ^ ^ ^ ^ E $ # 5 5 # 8 K.CXJXJXJXJXJXJXJXJXJXJXJXJXJXJXJXJXJXJXJX",
"JXJXJXJXJXJXJXJXJXJXJXJXJXJXJXJXJXJXJXJXNXuX` 8 5 # $ U E E U $ # # 5 W n.uXNXJXJXJXJXJXJXJXJXJXJXJXJXJXJXJXJXJXJXJXJXJX",
"JXJXJXJXJXJXJXJXJXJXJXJXJXJXJXJXJXJXJXJXJXJXGXNXfXeXM.` ` N ` ` M.eXfXVXJXJXJXJXJXJXJXJXJXJXJXJXJXJXJXJXJXJXJXJXJXJXJXJX",
"JXJXJXJXJXJXJXJXJXJXJXJXJXJXJXJXJXJXJXJXJXJXJXJXJXJXJXJXGXGXGXJXJXJXJXJXJXJXJXJXJXJXJXJXJXJXJXJXJXJXJXJXJXJXJXJXJXJXJXJX"
};
