/* XPM */
static char *_1b6cb8348b949ffba15395cb43360e8oxcqeAJe4NgO6xdy[] = {
/* columns rows colors chars-per-pixel */
"60 60 256 2 ",
"   c #050507",
".  c #1A0503",
"X  c #010214",
"o  c #01031C",
"O  c #080617",
"+  c #160315",
"@  c #091510",
"#  c #280305",
"$  c #390102",
"%  c #280118",
"&  c #370316",
"*  c #34150D",
"=  c #060926",
"-  c #160929",
";  c #09162C",
":  c #14162B",
">  c #160D35",
",  c #0C1533",
"<  c #041B34",
"1  c #0C1B34",
"2  c #0C1B3B",
"3  c #071739",
"4  c #121434",
"5  c #131B35",
"6  c #12143A",
"7  c #131C3B",
"8  c #1C1838",
"9  c #080E33",
"0  c #271837",
"q  c #2E102B",
"w  c #1A272A",
"e  c #0C233B",
"r  c #082638",
"t  c #13233C",
"y  c #172739",
"u  c #15333B",
"i  c #092C2E",
"p  c #2C2E35",
"a  c #2C2409",
"s  c #460202",
"d  c #560504",
"f  c #460217",
"g  c #550519",
"h  c #50160F",
"j  c #670603",
"k  c #651703",
"l  c #721311",
"z  c #4D2210",
"x  c #732B0D",
"c  c #550225",
"v  c #4B1230",
"b  c #701130",
"n  c #4F3230",
"m  c #6F2C2B",
"M  c #324535",
"N  c #4B5239",
"B  c #764D31",
"V  c #645A1B",
"C  c #0B1B43",
"Z  c #171C44",
"A  c #271B44",
"S  c #0C2745",
"D  c #132444",
"F  c #182848",
"G  c #133443",
"H  c #193849",
"J  c #1A3856",
"K  c #132E50",
"L  c #232947",
"P  c #253849",
"I  c #243955",
"U  c #312E4C",
"Y  c #233762",
"T  c #502C48",
"R  c #70304B",
"E  c #562D57",
"W  c #1B434A",
"Q  c #194653",
"!  c #24454D",
"~  c #274858",
"^  c #2A5558",
"/  c #375659",
"(  c #344951",
")  c #1D4465",
"_  c #294962",
"`  c #364967",
"'  c #2B5466",
"]  c #385867",
"[  c #3A5B73",
"{  c #2D5176",
"}  c #396675",
"|  c #39646A",
" . c #3E664C",
".. c #504D53",
"X. c #6E5350",
"o. c #556C57",
"O. c #4B586D",
"+. c #6E5270",
"@. c #49676A",
"#. c #486778",
"$. c #4B737B",
"%. c #5A7477",
"&. c #526C6D",
"*. c #6F6E6F",
"=. c #756E56",
"-. c #870801",
";. c #873402",
":. c #8A3009",
">. c #A72229",
",. c #CF0812",
"<. c #E22927",
"1. c #924C0C",
"2. c #AA5210",
"3. c #8D4B30",
"4. c #AE542B",
"5. c #AE6D31",
"6. c #A36914",
"7. c #C97515",
"8. c #D45B31",
"9. c #B00B53",
"0. c #8E354B",
"q. c #8D3D62",
"w. c #AD2162",
"e. c #CF0358",
"r. c #D20E66",
"t. c #DD2A6C",
"y. c #92564D",
"u. c #AD5350",
"i. c #926950",
"p. c #AE754F",
"a. c #91546A",
"s. c #8D736C",
"d. c #B26B6C",
"f. c #AE5672",
"g. c #D34E4E",
"h. c #F04F4E",
"j. c #F06A58",
"k. c #D1706B",
"l. c #D65E66",
"z. c #758873",
"x. c #6E855B",
"c. c #A28A2B",
"v. c #D28916",
"b. c #CD8D30",
"n. c #EC9123",
"m. c #F6B02D",
"M. c #E3AC21",
"N. c #FBD717",
"B. c #DACE36",
"V. c #F4CD30",
"C. c #EFE225",
"Z. c #B6904B",
"A. c #B2B153",
"S. c #AC9170",
"D. c #98A06E",
"F. c #CD926B",
"G. c #EEAC77",
"H. c #DEA05B",
"J. c #D3CD4D",
"K. c #D1C976",
"L. c #ECD46D",
"P. c #F7DF5A",
"I. c #B3C57B",
"U. c #3B6684",
"Y. c #4B6988",
"T. c #477686",
"R. c #577887",
"E. c #526F8E",
"W. c #6C768D",
"Q. c #565E83",
"!. c #8E788B",
"~. c #AD7193",
"^. c #935D86",
"/. c #D34E89",
"(. c #EC5089",
"). c #EA7093",
"_. c #F074A9",
"`. c #CF718E",
"'. c #BF2B81",
"]. c #5A8396",
"[. c #53868E",
"{. c #67888B",
"}. c #6A8699",
"|. c #699399",
" X c #77989A",
".X c #788892",
"XX c #7895A7",
"oX c #6D91AD",
"OX c #7CA5AE",
"+X c #66939F",
"@X c #919092",
"#X c #B0928E",
"$X c #90AB96",
"%X c #AEA78D",
"&X c #9498A5",
"*X c #8996AF",
"=X c #B192A9",
"-X c #88A6A5",
";X c #88A7B7",
":X c #95ADB7",
">X c #99B8B7",
",X c #91B1AE",
"<X c #A5B8B8",
"1X c #B0B1AE",
"2X c #D29487",
"3X c #CDAC94",
"4X c #F0B687",
"5X c #CB92B7",
"6X c #F390AB",
"7X c #CBB2AF",
"8X c #F1B0B2",
"9X c #F0878E",
"0X c #A9C9B5",
"qX c #A9C8A6",
"wX c #D0CE96",
"eX c #F3CE94",
"rX c #F9F78D",
"tX c #CECCB4",
"yX c #F2D2B2",
"uX c #FBE8B9",
"iX c #F5EEB4",
"pX c #DCE08C",
"aX c #99B7C5",
"sX c #92B1C6",
"dX c #A3BBC6",
"fX c #AFBACD",
"gX c #F497C9",
"hX c #FAB0D0",
"jX c #E6ADD6",
"kX c #9AC7CB",
"lX c #A7C8C9",
"zX c #B8C9C7",
"xX c #ABC8D6",
"cX c #B6CAD7",
"vX c #B7D7D9",
"bX c #ADD7C9",
"nX c #B3E7CF",
"mX c #B6D5E4",
"MX c #BCE1E7",
"NX c #CED4CF",
"BX c #F0D5CC",
"VX c #D1E8D5",
"CX c #FAE7CA",
"ZX c #FBF7C9",
"AX c #F8EAD8",
"SX c #FCF6D6",
"DX c #EBECD1",
"FX c #CBD8E8",
"GX c #F6D3EC",
"HX c #D8EAE8",
"JX c #D2EDEE",
"KX c #E6EBE8",
"LX c #FBFAE9",
"PX c #E5FBFB",
"IX c #FAFBF9",
"UX c #F1F0EB",
/* pixels */
": : ; ; ; ; ; , > > - - > 4 , , 4 = 4 5 , , , , 4 4 6 6 2 3 < 3 4 8 , 1 e 2 6 6 A > > , 2 2 7 , 1 1 4 5 6 6 2 C C C C C ",
": : ; 1 ; ; 1 4 > > 0 0 4 ; ; ; 7 7 , = 9 7 7 6 6 6 , 6 2 2 3 2 4 8 7 < < < Z Z 8 6 Z D 2 9 , t 3 e 1 , 6 7 7 9 C C C C ",
"; ; : ; ; ; ; , , ; 9 ; 5 t 5 ; < < < t D , 9 7 3 < < 3 1 5 8 8 5 1 1 1 < e e < < 3 1 7 Z F 7 , 2 < < 1 7 5 6 6 C C C C ",
"1 ; ; ; ; , 5 5 1 1 t 5 : : : 5 e e 1 = , Z 7 2 3 < < 1 5 5 8 8 t 9 3 t t e r r e t 7 4 - - - = , 2 t t 1 ; 6 7 6 6 6 6 ",
"; ; ; 1 5 5 5 5 5 ; = = - - q q - : : 8 D 2 3 2 2 2 5 5 8 8 8 8 t < D 7 5 t r G r ; - T +.^.^.W.E A - > 0 : , 6 6 6 6 6 ",
"1 1 1 5 1 5 5 : : U +.@X=X5X5X=X~.+.0 0 4 t F t 7 7 7 8 8 0 0 8 D S F 4 8 L ; : : +.jXhXgXgXgXgXhXjX5X+.q 0 y , 5 6 6 6 ",
"5 t e e r e L U =X=X5X~.q.R R q.f.`.5Xa.q > L 7 Z Z Z 8 8 y y t D Z F 6 L L : E jXhX_.f.9.w.w.w.'./.gXGX5XT O y 1 1 3 2 ",
"5 t t r r H O.*.+.R v c c c c g b c q.~.+.0 0 L Z Z D D D t y D F Z L F L 8 T 5XhX/.9.9.e.9.9.9.r.r.t._.hXjX*.O : 1 3 3 ",
"7 F e r ~ ] L o q q c c c c c g g c c b ^.v A A F S S K S D F F Z L F D P 0 ~.hX/.9.e.e.e.e.e.e.e.r.e.t._.hXjXT : ; 2 3 ",
"t t S H H e = o + % & & f f f f & c c v T T 0 U H K J K J J D L I F J H H U 5XhXw.r.e.e.e.e.e.e.e.r.r.t./.gXGX=Xq 5 5 1 ",
"G r G I t o o o o O + + + + % % % . % + q p y t u r r K J K F I F t G G G U =XgX(.t.t.t.t.r.t.t.t.t.r.t./.6XhX5X0 0 8 8 ",
"G u H F = o o o o o o X X X + + X O O     p ( &.W. XXX:X;XsXmX*X*XXXR.' / P !.hX_.(._.(.t.(.(.t.t.(.(.(.).6XhX5Xv 0 > 6 ",
"u u H y = o = o o o o o o o o o o o X ; .X X-X>X<XNXNXzX@X@.@.%.%.@X-X,X,XW.!.5XhX6X6X).).).).).).).).l.).gX6X^.v 0 6 7 ",
"u u H P e o o o o o o o o o X o o D O.O./ ( $XVXUXKXLXKXUX&X@ p 1XNXKXKXVXNX7X#XjXBX8X8X8X6X6X6X6X9X).6XgXgX~.T 0 8 2 2 ",
"u u H P H ; o = = = = = o o = < ` I ; ; w NXIXIXAXLXLXDXLXLXNXKXUXLXIXLXIXIXKX0Xz.1XAXBX8X8X8X8X8X8X8XhX6Xf.R v 0 e r r ",
"F P u G ~ H 1 ; = = = = = = F ~ F o = X NXIXAXAXLX7XD.tXSXDXLXDXLXLXtX3XBXLXAXLXNXM $XNX8XGXBXBXBXhX6Xd.0.b v q 5 S S r ",
"L H H Q Q Q ~ ' I D H J _ Y.[ ;   @   ..LXDXDXLX1Xn N =.wXSXSXDXLXs.n ..X.BXSXCXLX0X@ @X!.a.`.l.f.q.R T v 0 0 8 e r r < ",
"L H J Q Q Q ~ ' [ #.E.Y.oXY.= o       &XLXDXZXDX*.!.@X=.wXZXCXLX7X..*.*.@X@XCXSXDXLXO.= !.+.v b R E T T U L t t e r < < ",
"H H W Q Q ~ _ ` O.Q.#.E.W.F o o     o &XUXAXSXBX&XKXNXD.D.ZXAXLXS.1XHX-Xo.z.iXZXSXLX&Xo ` XXO...T T U U L y t e e 2 3 ; ",
"G H W W Q ~ ` O.O.E.Y.}.#.o = O X - > W.IXCXCXSX*.fXIX1X%XiXCXAXs.@XKXPXo.z.DXZXCXAX&X= = [ ].! ( ( P P F D e S e 2 1 , ",
"u G W W ! ^ ] O.#.#.T.T.] O   X o o X p SXuXiXZX&XO.W.o.%XZXuXuX%X..&.&.o.z.yXSXCXLX@X= 3 S R.~ ~ ! H G G G S S e 2 1 , ",
"u u W W ! ^ ] [ Y.} [.+XW   @ @ y : O . S.iXiXiX1Xy X @ %XiXiXZX=.w @   N %XuXyXuXAXn X 3 9 Y.[ ~ Q H G G G S r e 2 3 , ",
"G H W ! ~ ^ ] | } T.T.+Xi M tXBXAXLXBX%XS.eXiXiXDX*.  a %XuXuXCXs.    . . 3XCXyXCX#X# + X = ] #.~ ~ J H F F S 2 S 2 2 3 ",
"H H W ! ~ ^ ] } } T.[.|. XDXAXBXyXyXCXSXZXuXiXiXCXDXtXBXDXtXtX7XBX7X#Xi.i.CXyXyXyXn z n p X _ [ I ~ I K D F F F C 2 3 3 ",
"G I ! ~ ~ ' O.] } [.&.z.tXyX2Xk.F.p.y.p.eXZXuXZXCXBXDX@XN ........@XBXyXyXuXuXSXyXyXCXCXAX7X%.] I I I I F D F 2 Z 2 3 3 ",
"H I ~ H ~ ' ' {.mXMXJX@X3X8Xk.4.3.x k 4XeXeXyXuXuXCXi..   ..*XO.X   S.yXeXuXCXCXyXyXF.F.F.7XzX~ ` _ I F F F F Z Z 2 2 3 ",
"I K J Q | ] ] xXPXJXlXNX%X8Xy.l.l.H.4.G.G.G.eXeXeXyXi.n q X : X y p S.4XG.4X2XS.i.m :.3.x s.1X! ~ ~ J J I I D Z Z Z 6 6 ",
"L I ~ Q ' ~ @.MXOX^ / $X%X#X2X3.4.g.8.:.G.4.5.H.G.F.3.z n T U T U n 3.5.5.4.y.d.d.m u.x m 3X*.( ~ ~ ~ K H K D L D Z 6 6 ",
"L ~ ~ ~ ^ ' | @. X|.%.&.$Xo.%XS.3.k >.:.:.j.8.4.2.4.4.k d h # & f h l x :.p.d.u.0.f.0.d.3X*.! | ~ ~ ~ H I I 2 F D Z 7 6 ",
"P H H ^ ^ / &.@.<X:Xu ^ >X$Xo.@X3Xd.x x l d 4.2.4.2.:.k k h g b l m 3.d.k.3.l m 0.a.#X#X*.@.] ! H G H u H ~ F F F D 7 6 ",
"H W ^ ^ ! &.:XKXUXNXfXcXFXJX-X&.{..X1XS.i.3.k k k x 3.3.m m m m x y.y.l k d x i.#X@X%.] [ ~ O..XcXaX*X[ G J D F F D 2 2 ",
"H W ^ W {.JXKXKXFXIXIXPXPXPXJXlXR.[.%.z.%Xi.i.F.3.$ # $ $ s $ $ $ $ s h m a.#Xs.*.@.} } { Y.cXJXdXaXfXR.I I F F F D C 2 ",
"G ! ! @.FXPXHXHXIXPXPXPXPXJXJXJXxXdXaX}.P . # 3.eXZ.5.6.1.;.1.1.p.3.m n s.s.*.@.$.U.U.U.` aXcXR.[ Y.Y.` G H I D F S S 3 ",
"H ! P &.PXPXVXIXIXHXJXcXdX;XR.XXcXPXPXmXq . B s * Z.G.G.4XG.4XF.3.z # q *.{.{.[.} T.{ [ ] -X%.@.:XaXXX#./ ! y H F F C F ",
"G ! H / vXJXVXHX,X-X%.%.@.$.XXT.R.MXkX1Xy.j l.u.$ # # * z z * . . a p = o t $.$.[.U.{ T.,XVX0X,XvXVXHXHXNX<X%.u ; e D C ",
"H H ! H &.-X<X-X/ %.{.{.XX|.~ r G {.1Xi.>.g.g.j.9Xm h # # # & v m i.!.+.` < = r ' T.T.OXPXPXPXPXHXNXNXVXVXHXVXzX%.y 2 9 ",
"H u ~ ! ( &.:XvX X/ ! ! G H _ } |.zX2X>.8.j.h.h.g.9Xk.k.k.d.k.l.g.>.q.~.W.W.#.~ < S J sXaXcXJXFXPXPXKXUXIXKXVXHXPXW.9 D ",
"H W H ! ^ ! ] {.aXlXOX:XsX+XOXaXvX1Xd.g.8.<.j.g.g.l.g.h.j.j.j.g.<.<.0.+.W.W.W.W.XXE.#.;X;XXX;XXX-X<XlXzXVXJXFXcXxXFX3 2 ",
"u W H W ] ] ^ ] #.$.;XsX;XaXOX;X&X=XLX2Xg.g.u.8X7Xd.h.h.h.h.<.<.<.>.`.7X:XW..X@X}.;XoXT.aXoXY.oXW.W.}.}.}.:XxX;X#.cXD = ",
"G G W ~ W ~ | | #.R.R.].|.+XOX;X1X7XIXBXw.9.6XIXIXBXg.<.<.<.<.<.,.l.UXIXFX.X&X&X}.T.[.} #.aXoXU.Y.#.[ [ ] ~ Y.sXR.] t 3 ",
"G G Q W ~ ' ' $.T.[.|.XXOXOX:XaX1X%XIXUX0.0.f.IXHXIX6X>.<.<.<.<.,.F.UXFXxX%.W.&X|.].[.T.#.#.].OXR.].[.#.R.}.R.~ H t ; ; ",
"G H r ^ [ R.[.T.R.].|.+XOXOX,X>XtX@X7XjXb b m =X1X@X~.b >.,.,.,.,.u.~.@X&X..+.=X X+X[.[.R.#.] ' } } } T.Y.' H r G e ; ; ",
"u H ^ #.' ' [ } T.R.].|.OX,X>X<X1Xs.a.0.d j j x X.m R $ g l ,.,.,.,.0.R T # n =X:XOXoX].R.R.T.T.} ' ) ) J K K J S 1 , 1 ",
"H r R.' _ ' ' } T.[.|. X-X,X,X>X1X#Xd.0.l d j j l m v & f d -.,.,.,.>.b g $ s X..XXXOXoX}.R.} ^ Q ~ _ J J Y J K C 2 1 1 ",
"y u R.P H ' [ | $.R.|. X-X,X,X>XbXzXzX1X#Xm s h g b R a.l d j -.-.-.l d s d h n &XXX].T.Y.#.| ^ / ( I I Y Y Y Y Z Z 7 , ",
"e P ] #.~ Q ' [ } $.{. X-X$X$X,X>XbXbXVXBX#X* # n #X7X8Xu.l k s s s d d h m y.#X&XXX].T.} | / ( p M p p L L F C Z Z 6 , ",
"u y r #.#.} [ #.R.[.{. X$X$X$X$XqXqX0XNXNXGX*.O @ z.tX7X8X3X#X#Xs.v & v s.%X%X$X X X].R.@. .o.o.=.=.N M w w y 8 5 5 , 9 ",
"y H I G J ] | &.o.o.x.D.D.qXwXwXwXI.wXwXtXBX@Xw     =.S.wXyXNXVXBXB . . =.%XI.D.z.z.o.x.D.I.K.K.L.J.K.3XS.n : w 5 5 6 9 ",
"w u H J ) _ ^ N V c.J.J.P.rXrXrXrXP.P.J.L.K.c.V a . # a A.pXtXtXK.x # . . . V pXA.A.A.J.B.B.P.P.V.m.m.b.F.s.p : 5 7 6 > ",
"w u G J _ _ ( N c.B.V.V.P.P.P.L.P.P.V.C.B.B.b.c.p.Z.F.Z.A.K.tXNXpXZ.i.B B Z.c.c.J.B.B.C.N.N.V.V.m.n.n.2.4.B * w 5 2 6 > ",
"w u G J ) I ( N F.H.b.v.v.v.5.b.b.M.V.V.V.V.M.v.x d s h V wXNXtXeXG.F.p.5.x x 1.V.V.N.N.N.N.m.m.n.7.2.;.x n q y 7 2 6 > ",
"w u G H J I ( X.S.5.1.;.;.x x :.;.1.6.v.v.M.m.m.H.5.x k V wXUXBXyX5.x s s x v.V.V.V.N.N.M.M.v.7.2.;.x k s q 0 y 7 2 6 > ",
"i u G G J ~ ( ..y.m k d j j d d d d k x 1.2.7.7.7.7.1.1.Z.iXSXZXL.b.6.2.n.m.M.m.m.m.M.n.7.2.:.:.k d d h & 0 0 7 Z 2 4 4 ",
"y y r u H P p p X.n s s d s s s s s s d k x ;.;.2.4.5.i.3XtXDXDXeXb.7.7.7.v.v.n.v.7.6.2.:.l j d g $ & q q L L 3 Z 2 , 4 ",
"y y r u u u ! O.@XX.* # & & # # $ $ # # $ h x 3.x z * n %XNXHXVXyXG.5.1.1.1.1.1.;.;.x k g g f f & % q 0 A A F 2 C 2 , , ",
"5 e y H u u @.:X&X+.q + + +     . . . + + # * * n X.@XfXFXFXJXVXtX%XB x k d k d d s s & & & & % % - > Z F F F S C 2 , , ",
"D 1 r u i W -X,X:X*XW.O.p w ; i w w p ( O.W.&X:XzXzXFXFXFXvXnXVXvX1X=.n # # % & & % % % - - + . - 6 Z F K Y ` F Z 7 5 4 ",
"3 t u u i ^ ,XkXlXlXdXdX:X-X X X$X-X:XdXxXxXxXxXlXbXvXvXvXvX0XnXmXxX>X@XW.+.E U 0 0 A Z Z F w w U I Y _ { U.Y.` 7 7 5 1 ",
"3 t t i i W  X>X,X>XdXdX<X>X>X>X0X0XlXxXxXlXlXlXbXbXvXvXmXvXbXbXxXxXkX>X:X*X*XXXW.E.Y.Y.Y.Y.Y.Y.Q.Q.Y.Y.Y.E.E.` t 7 1 1 ",
"D e r i i i @.>XdXdXdXdX>X<X0X0X0X0XlXlXbXbXnXnXnXnXnXMXmXmXzXbXxXkXkX>XaXsXsX;X;XOXoXoXoXoXoXoX}.}.}.].].].Y.F t 7 1 1 "
};
